<svg width="91" height="91" viewBox="0 0 91 91" fill="none" xmlns="http://www.w3.org/2000/svg">
<path d="M59.1571 76.5577L59.4877 74.8219C59.4877 74.6566 59.653 74.4086 59.8183 74.326L61.0582 73.6647C61.8021 73.1688 62.2154 72.3422 62.1327 71.5157L61.8847 68.9533C61.8847 68.7054 61.9674 68.5401 62.1327 68.3747L65.3563 66.3083C65.6043 66.143 65.7696 65.9777 65.9349 65.8124L67.1747 64.3246C67.5053 63.9113 67.6707 63.498 67.7533 63.0021L67.9186 61.0184C67.9186 60.853 67.9186 60.6051 67.9186 60.4398L67.34 57.6295L66.9268 53.3313C66.9268 53.166 66.9268 53.0007 67.0094 52.9181L69.8197 48.9506C69.8197 48.8679 69.9024 48.8679 69.9024 48.7852L73.7872 45.3963C74.0352 45.231 74.2005 44.9831 74.2831 44.8178L76.2669 41.1809C76.2669 41.0982 76.3495 41.0156 76.3495 41.0156L78.0853 37.296C78.4986 36.4695 78.4986 35.7256 78.2506 35.147C77.7547 34.0725 76.5975 33.4939 75.4403 33.7418L71.8035 34.899C71.5555 34.9817 71.2249 34.899 71.1422 34.651L70.7289 34.0725C70.5636 33.8245 70.3983 33.5765 70.1503 33.4939L67.0094 31.0142C66.9268 30.9315 66.8441 30.8489 66.8441 30.7662L65.6869 28.2039L63.9511 24.567C63.8685 24.4017 63.7858 24.319 63.7032 24.1537L61.9674 21.922C61.9674 21.8393 61.8847 21.8393 61.8847 21.7567L60.8102 19.6903C60.8102 19.6076 60.7275 19.525 60.7275 19.4423V16.384C60.7275 15.2269 59.901 14.235 58.7438 14.0697L58.0825 13.987C57.8346 13.987 57.5866 13.987 57.3386 13.987L54.611 14.5656C54.5283 14.5656 54.4457 14.5656 54.363 14.5656L50.4782 13.5737C50.3955 13.5737 50.3129 13.5737 50.2302 13.4911L48.7424 13.2431C47.7505 13.0778 46.7587 13.6564 46.2627 14.5656V14.7309C46.1801 14.8962 46.0148 15.0615 45.8494 15.0615C45.6841 15.1442 45.5188 15.0615 45.3535 14.9789L43.6177 13.8217C43.3698 13.6564 43.1218 13.5737 42.8738 13.4911L40.8074 12.9951C40.5594 12.9125 40.3941 12.7472 40.3115 12.4992L40.1462 10.8461C39.9809 9.6889 38.989 8.77968 37.8318 8.77968H32.9551C32.7898 8.77968 32.5418 8.77968 32.3765 8.86233L27.9957 10.0195C27.8304 10.0195 27.6651 10.0195 27.4998 9.93686L27.1692 9.77155C26.3426 9.1103 25.1854 9.19296 24.4415 9.77155L22.2924 11.5073C22.2098 11.59 22.1271 11.6726 22.0445 11.7553L20.5567 13.3258C20.1434 13.739 19.9781 14.235 19.8954 14.8962V15.6401C19.8954 15.8881 19.7301 16.0534 19.5648 16.1361L17.581 17.2106C17.3331 17.3759 17.0851 17.5412 17.0025 17.7892L14.1095 21.2608C13.9442 21.3434 13.9442 21.3434 13.9442 21.3434L12.7043 22.9965C12.3737 23.4925 12.2084 24.0711 12.2911 24.6497L12.7043 27.6253C12.7043 27.7079 12.7043 27.7906 12.7043 27.8732L11.5471 31.4275C11.4645 31.5928 11.3818 31.8407 11.3818 32.0061V33.4939C11.3818 34.1551 11.7125 34.8164 12.1257 35.2296L12.9523 35.9735C13.035 36.0562 13.035 36.0562 13.1176 36.1389L14.2748 38.4532C14.4401 38.7012 14.6054 38.9492 14.7707 39.1145L19.0689 43.1646C19.7301 43.7432 20.722 43.9085 21.6312 43.5779L22.7057 42.9993C22.7884 42.9167 22.9537 42.9167 23.0364 42.9167L25.6813 43.1646C25.9293 43.1646 26.2599 43.1646 26.4253 43.082L31.302 41.7595C31.6326 41.6768 31.8806 41.8421 31.9632 42.1728V42.2554C32.3765 43.2473 33.3684 43.8259 34.4429 43.7432L35.4348 43.5779C35.6001 43.5779 35.848 43.5779 35.9307 43.7432L36.4266 44.2392C36.592 44.4045 36.6746 44.5698 36.592 44.8178L35.9307 48.5373C35.848 49.1159 36.0134 49.8598 36.4266 50.2731L40.0635 55.1498C40.2288 55.3151 40.2288 55.6457 40.0635 55.7284C39.5676 56.3896 39.5676 57.3815 40.0635 58.1254L40.4768 58.7866C40.5594 58.952 40.5594 59.1999 40.4768 59.3652L38.9063 62.8368C38.5757 63.0847 38.493 63.498 38.5757 63.746L38.6584 65.7297C38.6584 66.143 38.8237 66.4737 38.989 66.8043L40.8901 70.1105C40.9727 70.1932 40.9727 70.2758 40.9727 70.3585L41.3034 73.0861C41.3034 73.3341 41.386 73.5821 41.4687 73.7474L43.0391 77.2189C43.0391 77.3016 43.1218 77.3016 43.1218 77.3843L44.1963 79.368C44.279 79.5333 44.279 79.6986 44.1963 79.9466C43.9483 80.6905 44.1137 81.5171 44.6096 82.0957L45.1882 82.8396C45.6841 83.4182 46.2627 83.6661 47.0066 83.6661C47.2546 83.6661 47.5852 83.5835 47.7505 83.5008L49.1557 83.0049C49.2383 83.0049 49.321 83.0049 49.4037 83.0049H52.3793C52.9579 83.0049 53.6191 82.7569 54.0324 82.3436L55.7682 80.6078C55.8508 80.5252 55.8508 80.4425 55.9335 80.4425L57.0907 78.8721C57.1733 78.7894 57.1733 78.7894 57.256 78.7068L58.0825 78.1282C58.6611 77.8802 59.0744 77.3016 59.1571 76.5577Z" fill="white"/>
<path d="M77.0937 64.0766L77.1764 62.7541C77.259 62.1755 77.0937 61.7623 76.7631 61.2663L76.2671 60.4398C75.9365 59.9438 75.5232 59.7785 74.9446 59.7785C74.3661 59.7785 73.9528 60.1091 73.6222 60.5224L72.5476 62.5062C72.465 62.6715 72.2997 62.8368 72.1343 62.8368L70.7292 63.3327C70.1506 63.5807 69.572 63.9113 69.2414 64.5726L68.9934 65.0685C68.7454 65.5644 68.6628 65.9777 68.7454 66.5563L68.9934 67.9615C68.9934 68.1268 68.9934 68.3747 68.8281 68.5401L68.0842 69.6146C67.5883 70.1932 67.5056 71.0197 67.7536 71.7636L67.8362 72.0943C67.9189 72.2596 67.9189 72.4249 67.8362 72.5075C67.5883 73.3341 67.7536 74.2433 68.4148 74.9046C68.9108 75.4005 69.4893 75.6485 70.1506 75.6485C70.3986 75.6485 70.6465 75.6485 70.8118 75.5658L70.9772 75.4832C71.5557 75.2352 72.1343 74.9046 72.465 74.2433L74.2834 70.6065C74.3661 70.4411 74.4487 70.2758 74.4487 70.1105L75.3579 66.9696C75.3579 66.8869 75.4406 66.8043 75.4406 66.7216L76.4325 65.4818C76.9284 64.9858 77.0937 64.5726 77.0937 64.0766Z" fill="white"/>
<path d="M66.6801 72.8382C66.7627 72.5902 66.8454 72.1769 66.5148 71.929C66.3495 71.7636 66.1015 71.7636 65.8535 71.8463C65.6882 71.8463 65.6056 71.8463 65.5229 71.8463C65.4402 71.7636 65.5229 71.5983 65.6056 71.433C66.1015 70.5238 66.6801 69.6146 67.2587 68.8707C67.3413 68.788 67.3413 68.6227 67.176 68.5401C67.0934 68.4574 66.9281 68.4574 66.8454 68.6227C66.1842 69.4493 65.6056 70.3585 65.1096 71.2677C64.8617 71.8463 64.9443 72.0943 65.1096 72.2596C65.3576 72.5076 65.6056 72.4249 65.8535 72.4249C66.0188 72.4249 66.1015 72.4249 66.1842 72.4249C66.2668 72.5076 66.1842 72.7555 66.1842 72.8382C65.7709 74.6566 66.5974 76.723 68.0852 77.8802C68.1679 77.8802 68.1679 77.9629 68.2506 77.9629C68.3332 77.9629 68.4159 77.9629 68.4159 77.8802C68.4985 77.7975 68.4985 77.6322 68.3332 77.5496C67.0107 76.3097 66.3495 74.4913 66.6801 72.8382Z" fill="white"/>
<path d="M64.1992 72.3422C64.0339 72.3422 63.9512 72.4249 63.8686 72.5075C63.7032 73.0035 63.29 73.4994 62.794 73.7474C62.6287 73.83 62.4634 73.83 62.3807 73.9127C62.2154 73.9127 62.1328 73.9953 62.0501 73.9953C61.6368 74.1607 61.3889 74.326 61.2236 74.5739C61.0582 74.9046 61.0582 75.2352 61.0582 75.4832C61.0582 75.6485 61.0582 75.8964 60.9756 76.0617C60.9756 76.2271 60.9756 76.3097 61.1409 76.3924H61.2236C61.3062 76.3924 61.3889 76.3097 61.4715 76.2271C61.5542 75.9791 61.5542 75.7311 61.5542 75.5658C61.5542 75.3178 61.5542 75.0699 61.7195 74.9046C61.8021 74.7393 61.9675 74.5739 62.2981 74.4913C62.3807 74.4913 62.5461 74.4086 62.6287 74.4086C62.794 74.326 62.9593 74.326 63.1246 74.2433C63.7859 73.9953 64.2818 73.3341 64.4471 72.6728C64.4471 72.5075 64.3645 72.4249 64.1992 72.3422Z" fill="white"/>
<path d="M60.8935 77.7975C61.0588 77.7975 61.1414 77.7149 61.2241 77.6322C61.3067 77.3843 61.3894 77.1363 61.3067 76.8883C61.3067 76.723 61.1414 76.6404 60.9761 76.723C60.8108 76.723 60.7282 76.8883 60.8108 77.0536C60.8108 77.1363 60.8108 77.3016 60.8108 77.3843C60.6455 77.6322 60.7282 77.7975 60.8935 77.7975Z" fill="white"/>
<path d="M62.7118 76.8057C62.5465 76.8057 62.4638 76.971 62.5465 77.1363C62.6291 77.3843 62.5465 77.7149 62.2985 78.1282C61.3066 79.7813 59.6535 80.9385 57.7524 81.2691C57.5871 81.2691 57.5045 81.4344 57.5871 81.5171C57.5871 81.5997 57.7524 81.6824 57.8351 81.6824C57.8351 81.6824 57.8351 81.6824 57.9177 81.6824C59.9015 81.3518 61.8026 80.1119 62.7945 78.2935C62.9598 77.9629 63.2077 77.4669 63.1251 76.8883C62.9598 76.8883 62.8771 76.8057 62.7118 76.8057Z" fill="white"/>
<path d="M72.2169 59.2826C72.7129 58.6213 73.5394 58.208 74.2833 57.9601C74.4487 57.8774 74.5313 57.8774 74.6966 57.8774C74.9446 57.8774 75.2752 58.1254 75.4405 58.3733L75.5232 58.456C75.6885 58.704 75.9365 58.9519 76.1844 59.1172C76.5977 59.3652 77.011 59.4479 77.3416 59.3652C77.4243 59.3652 77.4243 59.3652 77.5069 59.2826C77.5896 59.2826 77.6723 59.1999 77.7549 59.1999C77.7549 59.1999 77.8376 59.2826 77.9202 59.2826C78.5815 59.9438 79.0774 60.9357 79.2427 61.8449C79.2427 62.0102 79.3254 62.0929 79.4907 62.0929C79.656 62.0929 79.7387 61.9276 79.7387 61.8449C79.5733 60.7704 79.0774 59.7785 78.3335 58.9519C78.2508 58.8693 78.1682 58.7866 78.0029 58.704C77.7549 58.6213 77.5896 58.704 77.4243 58.7866C77.3416 58.7866 77.3416 58.7866 77.259 58.8693C77.011 58.9519 76.763 58.8693 76.5151 58.704C76.2671 58.5387 76.1018 58.3733 75.9365 58.1254L75.8538 58.0427C75.6058 57.7121 75.1926 57.3815 74.7793 57.3815C74.5313 57.3815 74.366 57.4641 74.2007 57.5468C73.4568 57.8774 72.4649 58.2907 71.8863 59.0346C71.8037 59.1172 71.8037 59.2826 71.969 59.3652C72.1343 59.4479 72.1343 59.4479 72.2169 59.2826Z" fill="white"/>
<path d="M79.3261 63.2501C79.1608 63.2501 79.0782 63.4154 79.1608 63.5807C79.3261 64.2419 79.1608 64.9858 78.9129 65.3991C78.6649 65.8951 78.3343 66.4736 77.921 66.8869L77.7557 67.0522C77.673 67.1349 77.5077 67.3829 77.673 67.6308C77.7557 67.7961 77.921 67.8788 78.0036 67.8788C78.2516 67.9615 78.4996 68.0441 78.7475 68.1268C78.4169 69.5319 77.673 70.8544 76.6811 71.9289C76.5985 72.0116 76.5985 72.1769 76.6811 72.2596C76.7638 72.3422 76.7638 72.3422 76.8464 72.3422C76.9291 72.3422 77.0118 72.3422 77.0118 72.2596C78.1689 71.1024 78.9128 69.5319 79.2435 67.9615C79.2435 67.8788 79.2435 67.7961 79.1608 67.7961C79.0782 67.7961 79.0782 67.7135 78.9955 67.7135C78.6649 67.7135 78.4169 67.6308 78.1689 67.4655C78.1689 67.4655 78.1689 67.4655 78.0863 67.4655C78.0863 67.4655 78.0863 67.3829 78.1689 67.3829L78.3343 67.2175C78.6649 66.7216 79.0782 66.2257 79.3261 65.6471C79.5741 65.0685 79.8221 64.3246 79.5741 63.498C79.6568 63.2501 79.4914 63.1674 79.3261 63.2501Z" fill="white"/>
<path d="M70.4816 54.4885L71.0602 53.4966C71.1429 53.414 71.0602 53.2487 70.9775 53.166C70.8949 53.0834 70.7296 53.166 70.6469 53.2487L70.0683 54.2405C69.8204 54.6538 69.655 54.9844 69.4897 55.4804C69.3244 56.059 69.2418 56.6376 69.3244 57.2988C69.3244 57.4641 69.4071 57.7948 69.5724 57.9601C69.7377 58.208 69.9857 58.2907 70.3163 58.2907C70.399 58.2907 70.3989 58.2907 70.4816 58.2907C70.8122 58.208 71.0602 58.0427 71.2255 57.7121C71.3082 57.5468 71.2255 57.4641 71.0602 57.3815C70.8949 57.2988 70.8122 57.3815 70.7296 57.5468C70.6469 57.7121 70.5643 57.7948 70.399 57.7948C70.2336 57.7948 70.0683 57.7948 69.9857 57.6294C69.903 57.5468 69.8204 57.2988 69.8204 57.2162C69.7377 56.7202 69.7377 56.1416 69.903 55.6457C70.0683 55.2324 70.3163 54.9018 70.4816 54.4885Z" fill="white"/>
<path d="M77.5907 31.4275C78.5 31.7581 79.3265 32.4193 79.7398 33.2459C80.2357 34.0725 80.3184 35.147 79.9878 36.0562C79.9878 36.2215 79.9878 36.3042 80.1531 36.3868H80.2357C80.3184 36.3868 80.401 36.3042 80.4837 36.2215C80.8143 35.147 80.649 33.9898 80.1531 32.9979C79.6571 32.006 78.7479 31.2621 77.6734 30.9315C77.5081 30.8489 77.4254 30.9315 77.3428 31.0968C77.3428 31.2621 77.4254 31.4275 77.5907 31.4275Z" fill="white"/>
<path d="M80.0703 37.296C79.905 37.296 79.8223 37.3787 79.7397 37.4613C79.657 37.8746 79.4917 38.2879 79.2437 38.6185C79.1611 38.7012 79.1611 38.8665 79.3264 38.9492C79.4091 38.9492 79.4091 39.0318 79.4917 39.0318C79.5744 39.0318 79.657 39.0318 79.657 38.9492C79.905 38.5359 80.153 38.1226 80.2356 37.6267C80.2356 37.4613 80.153 37.3787 80.0703 37.296Z" fill="white"/>
<path d="M83.0453 33.4939C83.1279 33.4112 83.1279 33.2459 82.9626 33.1632C82.8799 33.0806 82.7146 33.0806 82.632 33.2459C82.3013 33.7418 82.0534 34.1551 81.8054 34.7337C81.5574 35.3123 81.5574 35.7256 81.8054 35.9735C81.8881 36.0562 81.9707 36.1388 82.0534 36.1388C82.136 36.1388 82.136 36.2215 82.2187 36.2215C82.3013 36.3868 82.3013 36.6348 82.2187 36.9654C81.6401 38.6185 80.4002 40.0237 78.8298 40.8502C78.7471 40.9329 78.6645 41.0982 78.7471 41.1809C78.8298 41.2635 78.9124 41.3462 78.9951 41.3462H79.0778C80.7309 40.5196 82.0534 39.0318 82.7146 37.2134C82.8799 36.6348 82.8799 36.2215 82.632 35.9735C82.5493 35.8909 82.4667 35.8082 82.384 35.8082C82.3013 35.8082 82.3013 35.7256 82.2187 35.7256C82.0534 35.5603 82.2187 35.2296 82.3013 34.9817C82.4667 34.4031 82.7973 33.9071 83.0453 33.4939Z" fill="white"/>
<path d="M75.4411 48.5373C75.6064 48.5373 75.6891 48.372 75.6064 48.2067C75.6064 48.0413 75.4411 47.9587 75.2758 48.0413C73.3747 48.4546 71.7216 49.5291 70.6471 51.0996C70.5644 51.1823 70.5644 51.3476 70.7297 51.4302C70.8124 51.4302 70.8124 51.5129 70.895 51.5129C70.9777 51.5129 71.0603 51.5129 71.0603 51.4302C72.1349 49.9424 73.7053 48.8679 75.4411 48.5373Z" fill="white"/>
<path d="M61.6375 13.4911C62.1334 13.5737 62.3814 14.0697 62.4641 14.235C62.6294 14.7309 62.712 15.2268 62.6294 15.7228C62.6294 15.8881 62.5467 15.9708 62.5467 16.0534C62.4641 16.3014 62.3814 16.5493 62.3814 16.7973C62.3814 17.6239 62.8773 18.3678 63.8692 18.9464C64.2825 19.1943 64.6958 19.3597 65.1091 19.525C65.4397 19.6903 65.7703 19.7729 66.1009 19.9382H66.1836C66.2662 19.9382 66.3489 19.8556 66.4316 19.7729C66.5142 19.6903 66.4316 19.525 66.3489 19.4423C66.0183 19.277 65.605 19.1117 65.2744 18.9464C64.8611 18.7811 64.5305 18.6157 64.1172 18.4504C63.5386 18.1198 62.8773 17.4586 62.96 16.7973C62.96 16.5493 63.0427 16.384 63.0427 16.1361C63.0427 15.9708 63.1253 15.8881 63.1253 15.7228C63.208 15.1442 63.208 14.4829 62.96 13.9043C62.712 13.3258 62.2987 12.9125 61.8028 12.8298C61.6375 12.8298 61.5548 12.9125 61.5548 13.0778C61.5548 13.2431 61.4722 13.4911 61.6375 13.4911Z" fill="white"/>
<path d="M63.7037 20.8475C63.6211 20.7648 63.4558 20.8475 63.3731 20.9301C63.2904 21.0128 63.3731 21.1781 63.4558 21.2608C64.6956 21.922 65.4395 22.5832 65.6875 23.4098C65.7701 23.7404 65.8528 24.0711 65.8528 24.4017C65.8528 24.6497 65.9354 24.8976 65.9354 25.2282C66.1008 26.1375 66.6794 26.964 67.4233 27.46C67.5059 27.46 67.5059 27.5426 67.5886 27.5426C67.6712 27.5426 67.7539 27.5426 67.7539 27.46C67.8365 27.3773 67.8365 27.212 67.6712 27.1293C67.01 26.6334 66.514 25.9722 66.3487 25.2282C66.2661 24.9803 66.2661 24.7323 66.2661 24.4843C66.2661 24.1537 66.1834 23.7404 66.1008 23.3272C65.7701 22.0047 64.6129 21.2608 63.7037 20.8475Z" fill="white"/>
<path d="M68.8286 29.1957C68.9112 29.1957 68.9939 29.1957 68.9939 29.1131C69.0766 29.0304 69.0766 28.8651 68.9939 28.7825C68.9113 28.6998 68.8286 28.5345 68.7459 28.4518C68.7459 28.2865 68.5806 28.2039 68.4153 28.2865C68.25 28.2865 68.25 28.4518 68.25 28.6171C68.3327 28.8651 68.4153 29.0304 68.5806 29.1957C68.7459 29.1957 68.7459 29.1957 68.8286 29.1957Z" fill="white"/>
<path d="M35.9312 7.37451C37.0884 7.45716 38.2456 7.37451 39.4854 7.29185H39.5681C40.064 7.29185 40.4773 7.20919 40.8906 7.29185C41.2212 7.37451 41.6345 7.62247 41.7171 8.03575C41.7171 8.20107 41.7171 8.36638 41.7171 8.53169C41.7171 8.77966 41.7171 9.11028 41.8825 9.44091C42.0478 9.77153 42.2957 9.85419 42.5437 10.0195C42.709 10.1022 42.8743 10.1848 42.957 10.3501C43.0396 10.4328 43.0396 10.4328 43.1223 10.4328C43.2049 10.4328 43.2049 10.4328 43.2876 10.3501C43.3703 10.2675 43.3703 10.1022 43.2876 10.0195C43.1223 9.85419 42.957 9.68888 42.709 9.60622C42.461 9.52356 42.2957 9.35825 42.2131 9.19294C42.1304 9.02763 42.1304 8.77966 42.1304 8.53169C42.1304 8.36638 42.1304 8.11841 42.1304 7.87044C42.0478 7.37451 41.5518 6.87857 40.8906 6.71326C40.3946 6.54794 39.8987 6.6306 39.4028 6.71326H39.3201C38.1629 6.79591 37.0057 6.87857 35.8486 6.79591C35.6832 6.79591 35.6006 6.87857 35.6006 7.04388C35.6832 7.29185 35.7659 7.37451 35.9312 7.37451Z" fill="white"/>
<path d="M45.2719 11.5073C45.6025 11.4247 45.9331 11.2594 46.2637 11.1767C46.925 10.9287 47.5036 10.6808 48.0822 10.6808C48.9087 10.6808 49.6526 11.094 50.3139 11.5073C50.3139 11.5073 50.3966 11.5073 50.4792 11.5073C50.5619 11.5073 50.6445 11.4247 50.7272 11.342C50.8098 11.2594 50.7272 11.094 50.6445 11.0114C49.9833 10.5981 49.1567 10.1022 48.2475 10.1022C47.5036 10.1022 46.8423 10.3501 46.2637 10.5981C45.9331 10.7634 45.6025 10.8461 45.2719 10.9287C45.1066 10.9287 45.0239 11.094 45.1066 11.2594C44.9412 11.5073 45.1066 11.59 45.2719 11.5073Z" fill="white"/>
<path d="M51.4706 11.9206C51.8839 12.0033 52.2972 12.0033 52.7931 12.0033C52.8758 12.0033 52.9584 12.0033 53.1237 12.0033C53.2891 12.0033 53.3717 11.9206 53.3717 11.7553C53.3717 11.59 53.2891 11.5073 53.1237 11.5073C52.6278 11.5073 52.1319 11.5073 51.6359 11.4247C51.4706 11.4247 51.388 11.5073 51.388 11.59C51.2226 11.8379 51.3053 11.9206 51.4706 11.9206Z" fill="white"/>
<path d="M25.9298 46.8841C25.5165 46.9668 25.1859 47.2148 24.7726 47.3801L24.6899 47.4627C24.1114 47.7934 23.5328 48.0413 22.9542 48.2893C22.045 48.6199 21.0531 49.0332 19.9785 48.9505C18.8214 48.8679 17.5815 48.2066 16.755 47.2148C15.9284 46.2229 15.4325 44.983 15.4325 43.6606C15.4325 43.4952 15.2671 43.4126 15.1845 43.4126C15.0192 43.4126 14.9365 43.5779 14.9365 43.6606C15.0192 45.0657 15.5151 46.4709 16.3417 47.4627C17.2509 48.6199 18.5734 49.2812 19.8959 49.3638C19.9785 49.3638 20.0612 49.3638 20.2265 49.3638C21.301 49.3638 22.2929 49.0332 23.1195 48.7026C23.6981 48.4546 24.3593 48.2066 24.9379 47.876L25.0206 47.7934C25.3512 47.628 25.6818 47.4627 26.0124 47.3801C27.0043 47.1321 28.0788 47.5454 29.236 48.124C29.3187 48.2066 29.484 48.124 29.5667 48.0413C29.6493 47.9587 29.5667 47.7934 29.484 47.7107C28.2442 47.0495 27.087 46.6362 25.9298 46.8841Z" fill="white"/>
<path d="M35.1047 57.9601C35.518 57.1335 35.518 56.2243 35.1874 55.4804C34.8568 54.9018 34.2782 54.4058 33.369 54.0752L33.2036 53.9926C32.7904 53.8273 32.3771 53.6619 32.2944 53.414C32.0465 53.0007 32.3771 52.5048 32.6251 52.0088L32.7077 51.7609C33.2036 50.6863 33.2863 49.5291 32.9557 48.372C32.6251 47.2974 31.8812 46.3055 30.8893 45.6443C30.8066 45.5616 30.6413 45.6443 30.5587 45.727C30.476 45.8096 30.5587 45.9749 30.6413 46.0576C31.5505 46.6362 32.2118 47.4627 32.4597 48.4546C32.7077 49.4465 32.6251 50.521 32.2118 51.5129L32.1291 51.7609C31.7985 52.3394 31.4679 53.0007 31.7985 53.6619C32.0465 54.1579 32.5424 54.3232 33.0383 54.4885L33.2036 54.5712C33.9476 54.9018 34.5261 55.3151 34.7741 55.811C35.1047 56.3896 35.0221 57.1335 34.6915 57.7947C34.4435 58.3733 33.9476 58.8693 33.2036 59.4479C33.121 59.5305 33.0383 59.6958 33.2036 59.7785C33.2863 59.8612 33.2863 59.8612 33.369 59.8612C33.4516 59.8612 33.4516 59.8612 33.5343 59.7785C34.0302 59.3652 34.6915 58.7866 35.1047 57.9601Z" fill="white"/>
<path d="M37.3369 59.8612C37.4196 59.7785 37.3369 59.6132 37.2543 59.5305C37.1716 59.4479 37.0063 59.5305 36.9236 59.6132C36.1797 60.853 35.4358 62.0929 35.1052 63.5807C34.6919 65.2338 34.8572 66.8043 35.6011 67.9615C35.6838 68.0441 35.7664 68.0441 35.8491 68.0441C35.9318 68.0441 35.9318 68.0441 36.0144 68.0441C36.0971 67.9615 36.1797 67.7962 36.0971 67.7135C35.4358 66.7216 35.2705 65.2338 35.6838 63.746C35.9318 62.2582 36.593 61.0184 37.3369 59.8612Z" fill="white"/>
<path d="M32.1288 61.0183C31.7981 61.5969 31.6328 62.2582 31.6328 62.8368C31.6328 63.0021 31.7155 63.0847 31.8808 63.0847C32.0461 63.0847 32.1288 63.0021 32.1288 62.8368C32.1288 62.2582 32.2941 61.6796 32.542 61.1836C32.6247 61.101 32.542 60.9357 32.4594 60.853C32.2941 60.853 32.1288 60.9357 32.1288 61.0183Z" fill="white"/>
<path d="M37.501 71.5157C37.0877 71.185 36.6745 70.8544 36.2612 70.5238C35.352 69.7799 34.4428 69.036 33.7815 68.1268C33.6988 68.0441 33.5335 67.9615 33.4509 68.0441C33.3682 68.1268 33.2856 68.2921 33.3682 68.3747C34.0295 69.3666 35.0213 70.1105 35.9306 70.8544C36.3438 71.185 36.7571 71.5157 37.0877 71.8463C38.1623 72.8382 39.4021 74.326 39.2368 75.9791C39.2368 76.1444 39.3195 76.2271 39.4848 76.2271C39.6501 76.2271 39.7327 76.1444 39.7327 75.9791C39.9807 74.1607 38.6582 72.5075 37.501 71.5157Z" fill="white"/>
<path d="M49.8172 84.4927C48.9907 84.41 48.1641 84.658 47.4202 84.8233C46.9243 84.9886 46.3457 85.1539 45.8497 85.1539C44.5272 85.3192 43.1221 84.5753 42.3782 83.4181C42.2955 83.3355 42.1302 83.2528 42.0476 83.3355C41.9649 83.4181 41.8822 83.5835 41.9649 83.6661C42.7088 84.906 44.114 85.6499 45.5191 85.6499C45.6018 85.6499 45.7671 85.6499 45.8497 85.6499C46.4283 85.5672 47.0069 85.4019 47.5029 85.2366C48.2468 84.9886 48.9907 84.8233 49.7346 84.906C49.8999 84.906 49.9825 84.8233 49.9825 84.658C50.0652 84.5753 49.9825 84.4927 49.8172 84.4927Z" fill="white"/>
<path d="M41.3042 81.4344C41.1389 81.4344 41.0562 81.5997 41.1389 81.765C41.2215 82.013 41.2215 82.261 41.2215 82.5089C41.2215 82.6743 41.3042 82.7569 41.4695 82.7569C41.6348 82.7569 41.7175 82.6743 41.7175 82.5089C41.7175 82.261 41.7175 81.9303 41.6348 81.6824C41.5522 81.4344 41.4695 81.3518 41.3042 81.4344Z" fill="white"/>
<path d="M41.4696 80.0292V79.12C41.4696 78.9547 41.3869 78.8721 41.2216 78.8721C41.0563 78.8721 40.9736 78.9547 40.9736 79.12V80.0292C40.9736 80.1946 41.0563 80.2772 41.2216 80.2772C41.3869 80.2772 41.4696 80.1119 41.4696 80.0292Z" fill="white"/>
<path d="M14.854 16.632C15.6806 16.3014 16.4245 15.8881 16.9204 15.0615C17.1684 14.5656 17.251 13.987 17.0857 13.4911C16.9204 13.0778 16.6724 12.7472 16.3418 12.5819C16.2592 12.5819 16.1765 12.4992 16.0939 12.4992C15.8459 12.4165 15.5979 12.3339 15.5979 12.1686C15.5979 12.0859 15.6806 12.0033 15.7632 11.9206C18.2429 9.19295 21.7145 7.29186 25.3513 6.79592C25.5167 6.79592 25.5993 6.63061 25.5993 6.54796C25.5993 6.38264 25.434 6.29999 25.3513 6.29999C21.6318 6.79592 17.9949 8.77967 15.4326 11.59C15.3499 11.6726 15.1846 11.8379 15.1846 12.0859C15.1846 12.5819 15.5979 12.7472 15.9285 12.9125C16.0112 12.9125 16.0939 12.9951 16.0939 12.9951C16.3418 13.1604 16.5071 13.4084 16.5898 13.5737C16.6724 13.987 16.6724 14.4003 16.4245 14.7309C16.0112 15.3922 15.3499 15.7228 14.606 16.0534C14.0275 16.3014 13.4489 16.5493 12.8703 16.7973C10.7212 17.6239 8.48949 18.4504 7.16699 20.3515C7.16699 20.5168 7.16699 20.6822 7.24965 20.7648C7.3323 20.7648 7.3323 20.8475 7.41496 20.8475C7.49762 20.8475 7.58027 20.8475 7.58027 20.7648C8.82011 19.029 10.9692 18.2025 13.0356 17.3759C13.6968 17.1279 14.2754 16.88 14.854 16.632Z" fill="white"/>
<path d="M11.4646 20.0209C11.3819 19.9382 11.2166 19.9382 11.134 20.0209C9.64617 21.2607 8.73695 23.1618 8.6543 25.1456C8.6543 25.3109 8.73695 25.3935 8.90227 25.3935C9.06758 25.3935 9.15023 25.3109 9.15023 25.1456C9.23289 23.3271 10.0595 21.5914 11.4646 20.4342C11.5473 20.2689 11.5473 20.1036 11.4646 20.0209Z" fill="white"/>
<path d="M9.06828 26.7987C8.90297 26.7987 8.82031 26.8814 8.82031 27.0467V28.5345C8.82031 28.6998 8.90297 28.7825 9.06828 28.7825C9.23359 28.7825 9.31625 28.6998 9.31625 28.5345V27.0467C9.31625 26.964 9.23359 26.7987 9.06828 26.7987Z" fill="white"/>
</svg>
