<svg width="8" height="6" viewBox="0 0 8 6" fill="none" xmlns="http://www.w3.org/2000/svg">
<g clip-path="url(#clip0_557_1205)">
<path d="M4.69336 5.56787C4.60872 5.66878 4.50619 5.74935 4.38574 5.80957C4.2653 5.86979 4.13509 5.8999 3.99512 5.8999C3.85514 5.8999 3.72412 5.86979 3.60205 5.80957C3.47998 5.74935 3.37826 5.67041 3.29688 5.57275L3.29199 5.56787L2.49609 4.46924L1.21191 2.90186L0.665039 2.1792C0.612956 2.11409 0.573079 2.04004 0.54541 1.95703C0.517741 1.87402 0.503906 1.78695 0.503906 1.6958C0.503906 1.47445 0.582031 1.28646 0.738281 1.13184C0.894531 0.977213 1.08333 0.899902 1.30469 0.899902C1.31445 0.899902 1.32422 0.899902 1.33398 0.899902C1.34375 0.899902 1.35514 0.899902 1.36816 0.899902H1.36328H6.62207C6.63184 0.899902 6.64242 0.899902 6.65381 0.899902C6.6652 0.899902 6.67578 0.899902 6.68555 0.899902C6.9069 0.899902 7.0957 0.977213 7.25195 1.13184C7.4082 1.28646 7.48633 1.47445 7.48633 1.6958C7.48633 1.78695 7.47168 1.87402 7.44238 1.95703C7.41309 2.04004 7.3724 2.11572 7.32031 2.18408L7.3252 2.1792L6.77344 2.90186L5.54297 4.46924L4.69336 5.56787Z" fill="currentColor"/>
</g>
<defs>
<clipPath id="clip0_557_1205">
<rect width="6.81" height="5" fill="white" transform="matrix(1 0 0 -1 0.5 5.8999)"/>
</clipPath>
</defs>
</svg>
