<svg width="91" height="91" viewBox="0 0 91 91" fill="none" xmlns="http://www.w3.org/2000/svg">
<path d="M35.1949 17.7111L45.993 33.2334L56.9036 17.4861C58.7033 14.8991 53.8666 13.4368 51.7295 17.4861C49.3674 21.9853 43.0685 22.0978 40.369 17.8236C37.557 13.2119 33.5077 15.349 35.1949 17.7111Z" fill="white"/>
<path d="M71.5267 71.0268C73.4389 69.1147 73.4389 66.0777 71.5267 64.278C69.6145 62.3658 66.5776 62.3658 64.7779 64.278C62.8657 66.1902 62.8657 69.2271 64.7779 71.0268C66.5776 72.8265 69.6145 72.8265 71.5267 71.0268Z" fill="white"/>
<path d="M58.0297 18.2735L54.6553 36.9452L73.552 33.5708C76.7015 33.0084 74.4518 28.5092 69.9526 29.859C65.116 31.3212 60.5043 26.9345 61.7415 21.9853C62.8663 16.9237 58.5921 15.349 58.0297 18.2735Z" fill="white"/>
<path d="M74.1146 51.3427C69.6154 48.9807 69.5029 42.5693 73.7772 39.9822C78.2764 37.2827 76.1393 33.1209 73.7772 34.8081L58.2549 45.6062L74.0022 56.5168C76.7017 58.3165 78.1639 53.4799 74.1146 51.3427Z" fill="white"/>
<path d="M46.1057 57.8666L35.1951 73.6139C33.3954 76.3134 38.1196 77.7757 40.3692 73.7264C42.7313 69.2271 49.1427 69.1147 51.7297 73.3889C54.4292 77.8881 58.591 75.751 56.9038 73.3889L46.1057 57.8666Z" fill="white"/>
<path d="M73.327 57.6417L54.6553 54.2672L58.0297 73.164C58.5921 76.3134 63.0913 74.0638 61.7415 69.5646C60.2793 64.7279 64.666 60.1162 69.6152 61.3535C74.7893 62.5908 76.139 58.0916 73.327 57.6417Z" fill="white"/>
<path d="M50.8305 76.7633C50.8305 74.0638 48.6934 71.9267 45.9939 71.9267C43.2944 71.9267 41.1572 74.0638 41.1572 76.7633C41.1572 79.4629 43.2944 81.6 45.9939 81.6C48.6934 81.6 50.8305 79.4629 50.8305 76.7633Z" fill="white"/>
<path d="M77.1511 50.3304C79.8223 50.3304 81.9878 48.165 81.9878 45.4938C81.9878 42.8225 79.8223 40.6571 77.1511 40.6571C74.4799 40.6571 72.3145 42.8225 72.3145 45.4938C72.3145 48.165 74.4799 50.3304 77.1511 50.3304Z" fill="white"/>
<path d="M27.3216 71.1393C29.2338 69.2271 29.2338 66.1902 27.3216 64.3905C25.4095 62.4783 22.3725 62.4783 20.5728 64.3905C18.6606 66.3027 18.6606 69.3396 20.5728 71.1393C22.485 72.939 25.5219 72.939 27.3216 71.1393Z" fill="white"/>
<path d="M27.3216 26.9345C29.2338 25.0223 29.2338 21.9853 27.3216 20.1857C25.4095 18.2735 22.3725 18.2735 20.5728 20.1857C18.6606 22.0978 18.6606 25.1348 20.5728 26.9345C22.3725 28.8467 25.4095 28.8467 27.3216 26.9345Z" fill="white"/>
<path d="M14.8367 50.4429C17.5362 50.4429 19.6733 48.3058 19.6733 45.6062C19.6733 42.9067 17.5362 40.7696 14.8367 40.7696C12.2496 40.7696 10 42.9067 10 45.6062C10 48.3058 12.1371 50.4429 14.8367 50.4429Z" fill="white"/>
<path d="M18.2119 51.2303C13.7126 53.9298 15.8498 58.0916 18.2119 56.4044L33.7342 45.6062L17.9869 34.6956C15.2874 32.8959 13.8251 37.7326 17.8744 39.8697C22.3736 42.3443 22.4861 48.6432 18.2119 51.2303Z" fill="white"/>
<path d="M22.0353 61.466C26.872 60.0037 31.4837 64.3905 30.2464 69.3396C29.0091 74.5137 33.3959 75.8635 33.8458 73.0515L37.2202 54.3797L18.3235 57.7541C15.2865 58.3165 17.6486 62.8158 22.0353 61.466Z" fill="white"/>
<path d="M18.6609 33.5708L37.3327 36.9452L33.9583 18.0485C33.3959 14.8991 28.8967 17.1487 30.2464 21.6479C31.7087 26.4846 27.3219 31.0963 22.3728 29.859C17.1987 28.6217 15.8489 33.1209 18.6609 33.5708Z" fill="white"/>
<path d="M71.4144 26.9345C73.3266 25.0223 73.3266 21.9853 71.4144 20.1857C69.5022 18.2735 66.4653 18.2735 64.6656 20.1857C62.7534 22.0978 62.7534 25.1348 64.6656 26.9345C66.4653 28.7342 69.5022 28.7342 71.4144 26.9345Z" fill="white"/>
<path d="M45.8806 19.1733C48.5801 19.1733 50.7173 17.0362 50.7173 14.3367C50.7173 11.6371 48.5801 9.5 45.8806 9.5C43.1811 9.5 41.0439 11.6371 41.0439 14.3367C41.1564 17.0362 43.2936 19.1733 45.8806 19.1733Z" fill="white"/>
</svg>
