<svg width="30" height="30" viewBox="0 0 30 30" fill="none" xmlns="http://www.w3.org/2000/svg">
<g clip-path="url(#clip0_541_153033)">
<path d="M0 0H30V30H0V0Z" fill="#012169"/>
<path d="M30 0V3.75L18.8672 15L30 25.957V30H26.0742L14.8828 18.9844L3.98438 30H0V26.0156L10.8984 15.0586L0 4.33594V0H3.63281L14.8828 11.0156L25.7812 0H30Z" fill="white"/>
<path d="M10.7812 18.9844L11.4258 20.9766L2.46094 30H0V29.8242L10.7812 18.9844ZM18.0469 18.2812L21.2109 18.75L30 27.3633V30L18.0469 18.2812ZM30 0L18.75 11.4844L18.5156 8.90625L27.3047 0H30ZM0 0.0585938L11.3086 11.1328L7.85156 10.6641L0 2.87109V0.0585938Z" fill="#C8102E"/>
<path d="M10.3125 0V30H19.6875V0H10.3125ZM0 10.3125V19.6875H30V10.3125H0Z" fill="white"/>
<path d="M0 12.1875V17.8125H30V12.1875H0ZM12.1875 0V30H17.8125V0H12.1875Z" fill="#C8102E"/>
</g>
<defs>
<clipPath id="clip0_541_153033">
<rect width="30" height="30" rx="15" fill="white"/>
</clipPath>
</defs>
</svg>
