<svg width="20" height="20" viewBox="0 0 20 20" fill="none" xmlns="http://www.w3.org/2000/svg">
<circle opacity="0.07" cx="10" cy="10" r="10" fill="white"/>
<path d="M5.98803 16.0027C8.46403 17.7358 11.7595 17.7358 14.2355 16.0027C15.9776 14.7833 17.0906 12.8554 17.2756 10.737C17.5386 7.72615 15.8908 4.8722 13.1519 3.59448C11.2248 2.69551 8.9987 2.69551 7.07164 3.59448C4.3327 4.8722 2.68496 7.72615 2.9479 10.737C3.1329 12.8554 4.24596 14.7833 5.98803 16.0027Z" fill="white"/>
<path d="M8.59712 12.2754C9.50603 12.9116 10.7158 12.9116 11.6247 12.2754C12.2642 11.8277 12.6728 11.12 12.7407 10.3424C12.8372 9.23715 12.2323 8.18949 11.2269 7.72046C10.5195 7.39046 9.7023 7.39046 8.9949 7.72046C7.98946 8.18949 7.3846 9.23715 7.48112 10.3424C7.54903 11.12 7.95763 11.8277 8.59712 12.2754Z" fill="#1B76BB"/>
</svg>
