<svg width="70" height="70" viewBox="0 0 70 70" fill="none" xmlns="http://www.w3.org/2000/svg">
<rect x="1.16016" y="1.08002" width="67.84" height="67.84" rx="33.92" stroke="currentColor" stroke-width="2"/>
<path fill-rule="evenodd" clip-rule="evenodd" d="M35.2628 39.2751L38.4317 36.1213L28.9753 36.0778C28.8306 36.0772 28.6875 36.0479 28.554 35.9916C28.4206 35.9353 28.2995 35.853 28.1976 35.7495C28.0958 35.646 28.0152 35.5233 27.9605 35.3883C27.9058 35.2534 27.8781 35.109 27.8789 34.9633C27.8796 34.8177 27.9088 34.6736 27.9648 34.5393C28.0207 34.4051 28.1025 34.2832 28.2053 34.1808C28.308 34.0783 28.4299 33.9973 28.5638 33.9423C28.6977 33.8873 28.841 33.8594 28.9856 33.8602L38.4399 33.9027L35.3132 30.7167C35.2112 30.6134 35.1306 30.4908 35.0757 30.3561C35.0209 30.2213 34.9929 30.077 34.9935 29.9314C34.9941 29.7857 35.0231 29.6416 35.0791 29.5073C35.135 29.373 35.2166 29.2511 35.3193 29.1486C35.527 28.9416 35.8078 28.8262 36.0999 28.8275C36.3921 28.8289 36.6718 28.947 36.8776 29.1558L42.0202 34.3853C42.1888 34.557 42.2827 34.7891 42.2814 35.0306C42.2801 35.272 42.1835 35.503 42.013 35.6728L36.8158 40.8515C36.6083 41.0584 36.3278 41.1739 36.0358 41.1725C35.7438 41.1712 35.4642 41.0531 35.2587 40.8442C35.1566 40.741 35.0757 40.6184 35.0207 40.4837C34.9656 40.3489 34.9375 40.2046 34.9379 40.0589C34.9383 39.9131 34.9671 39.7689 35.0229 39.6344C35.0786 39.5 35.1601 39.3779 35.2628 39.2751Z" fill="currentColor"/>
</svg>
