<svg width="91" height="91" viewBox="0 0 91 91" fill="none" xmlns="http://www.w3.org/2000/svg">
<path d="M58.5648 85C58.467 85 58.467 85 58.3691 85.1C58.467 85.1 58.5648 85 58.5648 85Z" fill="white"/>
<path d="M80.1842 55L76.7603 53.6L72.2603 50.3L71.282 47.5L67.2711 47.8L71.9668 55L65.8038 58.8L63.8472 58.2L63.9451 55.4L60.3255 50H58.7603L58.4668 53.5L60.8146 56.1L60.9125 59.7L66.3907 61.2L67.1733 64.5L62.9668 69.2L62.869 77.3L58.5646 80.8L58.7603 84.9C60.7168 84.3 62.6733 83.5 64.532 82.6V80L66.6842 76.8H67.7603L69.1298 77.7L68.6407 80.2C74.9994 76.1 80.1842 70.1 83.5103 63L79.6951 59.4L80.1842 55Z" fill="white"/>
<path d="M47.3152 5.29999C25.3043 5.29999 7.5 23.6 7.5 46C7.5 68.1 24.8152 86.1 46.337 86.6L44.087 83.2L45.163 73.4L41.7391 71.9L41.4457 67.3L38.7065 65.5H30.7826L25.5 61V56.1L26.8696 55.3L27.6522 50L36.4565 42.8L42.5217 43.1L43.8913 46L48.0978 47.9L55.2391 46.1L55.8261 43.1L52.9891 40.1L49.663 41.4L46.7283 37.5L45.3587 38L46.6304 41.8L43.8913 43.2L44.6739 40.8L42.5217 38L40.4674 39.4L37.0435 39.2L36.4565 41.6H33.0326L32.0543 36.9H35.7717L34.6957 34.6L36.0652 32.1L39.8804 31V27.5L42.7174 28L43.4022 31L49.4674 28.7L48.7826 23L46.337 23.9L45.6522 26.3H42.4239L40.8587 23.3L42.8152 17.9L48.2935 15.4L56.0217 17.9H58.1739H64.337L65.1196 19.4L69.7174 17.9V15.8L72.0652 14.2C65.3152 8.69999 56.7065 5.29999 47.3152 5.29999ZM36.75 29.5L34.4022 30.3L32.1522 29.9V27.7L34.4022 27.4L34.8913 25.1H36.75V29.5Z" fill="white"/>
</svg>
