<svg width="71" height="70" viewBox="0 0 71 70" fill="none" xmlns="http://www.w3.org/2000/svg">
    <rect x="69.1602" y="68.92" width="67.84" height="67.84" rx="33.92" transform="rotate(180 69.1602 68.92)"
        stroke="currentColor" stroke-width="2" />
    <path fill-rule="evenodd" clip-rule="evenodd"
        d="M35.0575 30.725L31.8886 33.8788L41.345 33.9223C41.4897 33.9228 41.6328 33.9521 41.7663 34.0084C41.8997 34.0648 42.0209 34.147 42.1227 34.2506C42.2245 34.3541 42.3051 34.4768 42.3598 34.6117C42.4145 34.7466 42.4422 34.8911 42.4414 35.0368C42.4407 35.1824 42.4116 35.3265 42.3556 35.4607C42.2996 35.595 42.2178 35.7168 42.1151 35.8193C42.0123 35.9217 41.8905 36.0028 41.7565 36.0578C41.6227 36.1128 41.4793 36.1407 41.3347 36.1398L31.8804 36.0974L35.0071 39.2834C35.1091 39.3867 35.1898 39.5092 35.2446 39.644C35.2994 39.7788 35.3274 39.9231 35.3268 40.0687C35.3262 40.2143 35.2972 40.3584 35.2413 40.4927C35.1853 40.6271 35.1037 40.749 35.001 40.8515C34.7933 41.0584 34.5125 41.1739 34.2204 41.1725C33.9282 41.1712 33.6485 41.0531 33.4427 40.8442L28.3001 35.6147C28.1315 35.443 28.0376 35.2109 28.0389 34.9695C28.0402 34.7281 28.1368 34.497 28.3073 34.3273L33.5045 29.1485C33.712 28.9416 33.9926 28.8262 34.2846 28.8275C34.5766 28.8289 34.8561 28.947 35.0617 29.1558C35.1637 29.2591 35.2446 29.3816 35.2997 29.5164C35.3547 29.6512 35.3828 29.7955 35.3824 29.9412C35.3821 30.0869 35.3532 30.2312 35.2974 30.3656C35.2417 30.5001 35.1602 30.6222 35.0575 30.725Z"
        fill="currentColor" />
</svg>