<svg width="91" height="91" viewBox="0 0 91 91" fill="none" xmlns="http://www.w3.org/2000/svg">
<path fill-rule="evenodd" clip-rule="evenodd" d="M17.2337 16.7419C21.8709 12.1053 28.1597 9.5 34.7193 9.5C41.2761 9.5 47.5649 12.1053 52.2018 16.7419C52.9114 17.4454 53.5738 18.1932 54.1892 18.9792L50.7032 22.4794C50.1085 21.6757 49.4549 20.9133 48.7482 20.2038C44.1905 15.638 37.6957 13.5772 31.3358 14.6754C24.9792 15.7734 19.5529 19.8948 16.7912 25.7235C14.0295 31.5552 14.274 38.364 17.4507 43.9784C20.6275 49.5923 26.3394 53.3136 32.758 53.9489C39.1794 54.5847 45.5095 52.056 49.7258 47.1751C53.942 42.2912 55.52 35.662 53.9537 29.4032L57.8783 25.4791C60.7431 33.0921 59.6861 41.6231 55.0519 48.3085L62.4802 55.7564L63.069 55.1588V55.1618C63.7845 54.4523 64.9357 54.4523 65.6511 55.1618L81.4641 70.9788C81.8086 71.3203 82 71.7854 82 72.2711C82 72.7539 81.8086 73.219 81.4641 73.5605L74.0595 80.9642C73.7179 81.3086 73.2527 81.5 72.7699 81.5C72.2841 81.5 71.8189 81.3086 71.4774 80.9642L55.6584 65.1231C54.9488 64.4077 54.9488 63.2537 55.6584 62.5384L56.256 61.9496L48.8189 54.54C41.9913 59.2707 33.2441 60.2569 25.5327 57.1659C17.8222 54.0778 12.1776 47.3221 10.5051 39.1852C8.83574 31.0514 11.3618 22.6206 17.2326 16.7416L17.2337 16.7419ZM63.0931 13.0591H63.5406L43.4344 33.1334L41.5736 26.1859C41.4794 25.759 41.1585 25.4146 40.7404 25.2909C40.3193 25.1673 39.8659 25.2821 39.5538 25.5883L31.2162 33.9248C30.6862 33.657 30.1003 33.5156 29.5056 33.5186C27.9658 33.5186 26.5761 34.4459 25.9873 35.8678C25.3984 37.2896 25.7252 38.9294 26.8117 40.0186C27.901 41.1049 29.541 41.4316 30.963 40.8429C32.3851 40.2541 33.3125 38.8646 33.3125 37.325C33.3125 36.7333 33.1741 36.1504 32.9062 35.6205L39.7751 28.7525L41.6506 35.7618C41.7654 36.174 42.0893 36.4919 42.4985 36.6038C42.9107 36.7127 43.3494 36.5949 43.6526 36.2976L65.2452 14.7252V15.1815V15.1785C65.1539 15.5259 65.2216 15.8939 65.4307 16.1824C65.6397 16.4738 65.9665 16.6563 66.3228 16.6828C66.679 16.7064 67.0294 16.5709 67.2737 16.3119C67.521 16.0558 67.6418 15.6996 67.6005 15.3433L67.8596 11.7401C67.8626 11.6783 67.8626 11.6165 67.8596 11.5517C67.8479 11.2308 67.7036 10.9276 67.4651 10.7098C67.2266 10.4949 66.9086 10.3859 66.5877 10.4065L62.9221 10.6656H62.9192C62.2774 10.7363 61.8062 11.3015 61.8534 11.9462C61.9005 12.5908 62.4483 13.0826 63.0931 13.0591Z" fill="white"/>
</svg>
