<svg width="24" height="25" viewBox="0 0 24 25" fill="none" xmlns="http://www.w3.org/2000/svg">
<path d="M16.6251 2.10181C15.3224 2.1019 14.0491 2.50047 12.966 3.24711C11.883 3.99375 11.0388 5.05494 10.5404 6.29648C10.042 7.53802 9.91161 8.90415 10.1658 10.2221C10.42 11.5401 11.0473 12.7507 11.9684 13.7009C12.8896 14.6511 14.0631 15.2981 15.3407 15.5603C16.6184 15.8224 17.9426 15.6878 19.1461 15.1735C20.3495 14.6593 21.3782 13.7884 22.1019 12.6711C22.8256 11.5537 23.2118 10.2401 23.2118 8.89629C23.2118 8.00399 23.0414 7.12042 22.7104 6.29605C22.3794 5.47167 21.8942 4.72264 21.2826 4.0917C20.6709 3.46077 19.9448 2.9603 19.1457 2.61887C18.3465 2.27745 17.49 2.10175 16.6251 2.10181Z" stroke="#00C68D" stroke-miterlimit="10"/>
<path d="M11.3652 15.9101C11.3652 17.2948 10.8699 18.4671 9.87944 19.4272C8.88893 20.3874 7.62628 20.868 6.09147 20.8693C4.64011 20.8693 3.45611 20.416 2.53947 19.5096C1.62284 18.6032 1.12071 17.3707 1.03308 15.812H3.85073C3.97274 16.6117 4.2437 17.2068 4.6582 17.5947C5.07271 17.9825 5.60474 18.1796 6.24131 18.1796C6.90583 18.1796 7.45656 17.9596 7.89349 17.5197C8.10491 17.3108 8.27216 17.0591 8.38473 16.7804C8.49729 16.5016 8.55272 16.2019 8.54755 15.9C8.54755 15.197 8.25506 14.6088 7.6674 14.1248C7.07974 13.6407 6.23189 13.3931 5.1243 13.3788V11.6526C5.12429 11.4423 5.1963 11.2387 5.32762 11.0778C5.45895 10.917 5.64115 10.8091 5.84205 10.7733C6.1776 10.7116 6.44811 10.6306 6.65357 10.5304C6.97 10.3815 7.24077 10.1458 7.43637 9.84916C7.61636 9.57887 7.71327 9.25893 7.7145 8.93101C7.7145 8.50757 7.57185 8.15956 7.28699 7.88051C7.00213 7.60145 6.62889 7.46401 6.16549 7.46401C5.76475 7.46271 5.37474 7.59753 5.05566 7.84765C4.7294 8.09325 4.48994 8.44218 4.37379 8.84123H1.6369C1.77895 7.69972 2.17551 6.78388 2.82658 6.09373C3.73813 5.12899 4.88145 4.64601 6.25656 4.64478C7.48482 4.64478 8.51465 5.0477 9.34605 5.85355C9.5746 6.07388 9.77958 6.31885 9.95749 6.58427C9.51218 7.9698 9.47999 9.46128 9.86508 10.8659C9.51398 11.3182 9.04415 11.6929 8.45559 11.99C9.36684 12.2695 10.0798 12.7572 10.5945 13.4533C11.1092 14.1493 11.3661 14.9682 11.3652 15.9101Z" fill="#003B6B"/>
<path d="M22.8357 4.04775V2.85059H22.9762V3.3837H23.595V2.85059H23.7355V4.04775H23.595V3.5123H22.9762V4.04775H22.8357Z" fill="#003B6B"/>
<path d="M21.7484 2.97919V2.85059H22.6188V2.97919H22.2539V4.04775H22.1133V2.97919H21.7484Z" fill="#003B6B"/>
<path d="M23.1961 8.87817C23.1985 10.1343 22.8609 11.3662 22.2213 12.4351C21.4817 11.5608 20.5621 10.868 19.5297 10.4072C19.6885 10.0471 19.8653 9.76947 20.1295 9.67044C20.2071 9.44831 20.274 9.19933 20.3385 8.9573C20.5 8.35338 20.6674 7.73002 21.0249 7.4431L21.0411 7.42921H21.0621C21.2864 7.40607 21.5507 7.15617 21.6036 6.91414C21.6408 6.74476 21.5735 6.60223 21.4098 6.50042L21.3842 6.48422L21.2205 5.80394L21.3021 5.73638C21.142 5.58684 21.0007 5.41705 20.8818 5.23102C20.7194 5.2773 20.5539 5.39438 20.3937 5.50869C20.073 5.74008 19.7101 5.99784 19.3274 5.67251L18.1696 5.69565L17.4917 6.19962L16.7179 6.12511L16.7009 6.11169C15.9831 5.5434 15.9037 5.61559 15.6112 5.88678C15.5767 5.91825 15.5399 5.95249 15.4991 5.98859L15.4798 6.00525L15.1886 6.01959L15.1671 5.97609C14.9428 5.52211 14.2775 5.33792 13.7765 5.31849C13.3279 5.3009 13.0233 5.40086 12.9439 5.51285C12.8375 6.05708 12.6949 6.1811 12.5796 6.28106C12.4517 6.39167 12.3508 6.47913 12.3741 7.38062V7.38386C12.5087 7.61525 12.7285 7.99982 12.3934 8.25943C12.3934 8.2909 12.3934 8.3233 12.3934 8.35523C12.3934 8.5644 12.3934 8.82217 12.1063 8.91704C11.9883 9.31503 11.8704 9.63203 11.6927 9.87406L11.6479 11.6428C11.4082 11.8545 11.1816 12.0816 10.9696 12.3226C10.511 11.5202 10.2175 10.6289 10.1075 9.70439C9.99744 8.77984 10.0732 7.84182 10.33 6.94879C10.5868 6.05577 11.0192 5.22689 11.6002 4.51383C12.1812 3.80077 12.8983 3.21881 13.7069 2.80422C13.8535 2.72833 14.003 2.6586 14.1555 2.59505L14.2704 2.54877C14.2932 2.53951 14.3152 2.53026 14.339 2.52193C14.4769 2.46917 14.6167 2.4212 14.7584 2.37801C14.7822 2.37014 14.806 2.3632 14.8298 2.35672C14.8773 2.34283 14.9249 2.32941 14.9729 2.31646L15.081 2.28869C15.1043 2.28267 15.1258 2.27666 15.1519 2.27157L15.2227 2.25491C15.2824 2.24195 15.3416 2.22899 15.4022 2.21788L15.4381 2.21094L15.5215 2.19567L15.6081 2.18132L15.7077 2.16605C16.3446 2.07443 16.991 2.07864 17.6268 2.17855C17.7078 2.19151 17.7886 2.20585 17.869 2.22159C17.9997 2.2475 18.1286 2.27727 18.2557 2.3109C18.288 2.31923 18.3194 2.32803 18.3508 2.33682L18.4141 2.3544C18.4876 2.37615 18.5608 2.40068 18.6339 2.42336C18.6563 2.4303 18.6787 2.43817 18.7012 2.44603C18.746 2.4613 18.7909 2.4775 18.8357 2.49231C18.8806 2.50712 18.9255 2.52517 18.9663 2.54183L19.0349 2.5696L19.1004 2.5969L19.1659 2.62467C19.2529 2.66215 19.3391 2.70149 19.4234 2.74314L19.4826 2.77229C19.5051 2.7834 19.5275 2.7945 19.5504 2.80654L19.6369 2.85281C19.6706 2.87086 19.7042 2.88891 19.7374 2.90742C19.7782 2.9301 19.8195 2.9537 19.8599 2.9773C19.9003 3.0009 19.9411 3.02358 19.981 3.04996C20.0012 3.06199 20.0209 3.07495 20.0411 3.08744C20.0811 3.11197 20.1205 3.13742 20.1596 3.16334L20.2766 3.24247C20.3924 3.32299 20.5057 3.40691 20.6167 3.49422C20.6535 3.52338 20.6902 3.553 20.7261 3.58308C20.835 3.67224 20.941 3.76479 21.0442 3.86074C21.181 3.98939 21.3134 4.12452 21.4394 4.26428C22.5705 5.5171 23.1983 7.16615 23.1961 8.87817Z" fill="#00C68D"/>
<path opacity="0.4" d="M21.2941 4.00794C20.2068 2.88349 18.7751 2.18286 17.2431 2.02549C15.711 1.86811 14.1735 2.26373 12.8926 3.1449C11.6117 4.02608 10.6667 5.33826 10.2186 6.85778C9.77058 8.37729 9.84724 10.0101 10.4356 11.4778C11.0239 12.9455 12.0874 14.1574 13.4449 14.9067C14.8024 15.656 16.3697 15.8965 17.8798 15.5871C19.3899 15.2777 20.7493 14.4376 21.7262 13.21C22.7031 11.9824 23.237 10.4433 23.237 8.85506C23.2407 7.95461 23.0709 7.06238 22.7373 6.23025C22.4038 5.39813 21.9132 4.64271 21.2941 4.00794ZM14.1291 8.69865H12.1104C12.1212 7.62979 12.3249 6.57236 12.7111 5.58046H14.4193C14.2291 6.60832 14.1319 7.65221 14.1291 8.69865ZM14.4211 12.1292H12.7111C12.3239 11.1375 12.1193 10.0801 12.1077 9.01102H14.1264C14.1307 10.0576 14.2293 11.1015 14.4211 12.1292ZM12.8457 5.26623C13.493 3.83486 14.5153 2.79315 15.7082 2.44098C15.3726 2.78945 15.0698 3.33738 14.8177 4.06394C14.6831 4.45764 14.5719 4.85946 14.4848 5.26716L12.8457 5.26623ZM14.5126 2.67468C13.9984 3.03887 13.5519 3.49568 13.1947 4.02321C12.9267 4.41259 12.6977 4.82907 12.5115 5.26623H11.3106C12.0749 4.06573 13.1997 3.15685 14.5126 2.67885V2.67468ZM11.123 5.57629H12.3849C12.0136 6.57183 11.8178 7.62784 11.8067 8.69448H10.2734C10.2981 7.59926 10.5903 6.52818 11.123 5.58046V5.57629ZM10.2734 9.00685H11.8067C11.8178 10.0735 12.0136 11.1295 12.3849 12.125H11.123C10.5903 11.1773 10.298 10.1063 10.2734 9.01102V9.00685ZM11.3106 12.4374H12.5115C12.698 12.8739 12.9269 13.2897 13.1947 13.6786C13.5514 14.2076 13.9979 14.6657 14.5126 15.0308C13.1994 14.5525 12.0745 13.6429 11.3106 12.4416V12.4374ZM12.8457 12.4374H14.4848C14.5725 12.8458 14.6842 13.2482 14.8195 13.6425C15.0716 14.369 15.3744 14.917 15.71 15.2654C14.5153 14.9151 13.493 13.8739 12.8457 12.4416V12.4374ZM16.4515 15.3761C15.958 15.2631 15.4744 14.6065 15.103 13.5351C14.98 13.1756 14.8773 12.8091 14.7953 12.4374H16.4515V15.3761ZM16.4515 12.125H14.7298C14.5352 11.0977 14.4356 10.0536 14.4323 9.00685H16.451L16.4515 12.125ZM16.4515 8.69448H14.4328C14.4362 7.64912 14.5356 6.60645 14.7298 5.58046H16.4519L16.4515 8.69448ZM16.4515 5.26392H14.7953C14.8772 4.89235 14.98 4.52598 15.103 4.16667C15.4744 3.09535 15.9589 2.4382 16.4515 2.32575V5.26392ZM22.9324 8.69448H21.3991C21.3878 7.62786 21.192 6.57189 20.8208 5.57629H22.0827C22.6165 6.52657 22.9088 7.60062 22.9324 8.69865V8.69448ZM19.0744 8.69448C19.071 7.64799 18.9733 6.6041 18.7824 5.57629H20.4907C20.8778 6.56801 21.0824 7.62545 21.094 8.69448H19.0744ZM21.0931 9.00685C21.0815 10.0759 20.8769 11.1333 20.4898 12.125H18.7846C18.9755 11.0972 19.0733 10.0533 19.0767 9.00685H21.0931ZM21.8952 5.26623H20.6961C20.5097 4.82987 20.2808 4.41417 20.0129 4.02553C19.6555 3.4981 19.2091 3.04131 18.6949 2.677C20.0073 3.15613 21.1314 4.06559 21.8952 5.26623ZM20.3601 5.26623H18.7223C18.6352 4.85854 18.524 4.45672 18.3894 4.06301C18.1373 3.33645 17.8341 2.78852 17.499 2.44005C18.6904 2.795 19.7128 3.83671 20.3601 5.26623ZM16.7543 2.32806C17.2477 2.44052 17.7313 3.09766 18.1028 4.16899C18.2258 4.5283 18.3286 4.89466 18.4105 5.26623H16.7543V2.32806ZM16.7543 5.57861H18.4765C18.671 6.60595 18.7706 7.65003 18.7739 8.69679H16.7552L16.7543 5.57861ZM16.7543 9.00917H18.773C18.7697 10.0559 18.6702 11.1 18.4756 12.1274H16.7543V9.00917ZM16.7543 15.3784V12.4397H18.4105C18.3285 12.8114 18.2257 13.1779 18.1028 13.5374C17.7313 14.6106 17.2469 15.2673 16.7543 15.3802V15.3784ZM18.3881 13.6425C18.5227 13.2488 18.6338 12.847 18.7209 12.4393H20.3601C19.7128 13.8739 18.6904 14.9151 17.4976 15.2673C17.8327 14.9188 18.136 14.3709 18.3881 13.6425ZM18.6931 15.0308C19.2074 14.6668 19.6539 14.2101 20.0111 13.6827C20.2795 13.294 20.509 12.8781 20.6961 12.4416H21.897C21.1325 13.6431 20.007 14.5527 18.6931 15.0308ZM22.0827 12.1292H20.8208C21.192 11.1336 21.3878 10.0776 21.3991 9.01102H22.9324C22.9082 10.1076 22.6159 11.1802 22.0827 12.1292Z" fill="white"/>
<path d="M15.6189 9.87882L15.6265 9.92603L15.5687 9.88762L15.395 9.77146L15.1631 9.92603L15.2075 9.65993L15.02 9.47158L15.2793 9.46973L15.395 9.19067L15.5108 9.46973L15.7696 9.47158L15.5826 9.65993L15.6189 9.87882Z" fill="#003B6B"/>
<path d="M16.5331 9.78169L16.5348 9.79465L16.5169 9.78262L16.3038 9.64009L16.0719 9.79465L16.1159 9.52856L15.9283 9.34021L16.1876 9.33789L16.3038 9.05884L16.4191 9.33789L16.6784 9.34021L16.4909 9.52856L16.5331 9.78169Z" fill="#003B6B"/>
<path d="M17.4353 9.87558L17.4438 9.92603L17.3599 9.87003L17.2316 9.78395L17.2123 9.77146L17.1957 9.78256L17.0849 9.85615L16.9804 9.92603L16.9925 9.85383L17.0051 9.77655L17.0248 9.65993L16.8373 9.47158L17.0966 9.46973L17.2123 9.19067L17.3276 9.46973L17.5869 9.47158L17.3994 9.65993L17.4223 9.79645L17.4353 9.87558Z" fill="#003B6B"/>
<path d="M19.2692 10.4707H19.4735V10.4933C19.431 10.4983 19.4164 10.5221 19.4164 10.6351V11.3489H19.3629L18.8132 10.7655V11.1846C18.8132 11.2975 18.8278 11.3213 18.8691 11.3276V11.3489H18.666V11.3276C18.7074 11.3213 18.722 11.2975 18.722 11.1846V10.6351C18.722 10.5221 18.7074 10.4983 18.666 10.4933V10.4707H18.8278L19.3252 11.0001V10.6351C19.3252 10.5221 19.3118 10.4983 19.2692 10.4933V10.4707Z" fill="#003B6B"/>
<path d="M18.605 11.3489H18.2851V11.3276C18.3094 11.3088 18.3313 11.2761 18.2912 11.1683L18.2729 11.1193H17.9665L17.9336 11.2046C17.9032 11.2837 17.93 11.3113 17.9568 11.3276V11.3489H17.7269V11.3276C17.7731 11.3088 17.812 11.2586 17.8558 11.1519L18.1319 10.4707H18.2243L18.5101 11.1921C18.5381 11.2636 18.5636 11.3125 18.605 11.3276V11.3489ZM17.9993 11.0353H18.2413L18.1234 10.7166L17.9993 11.0353Z" fill="#003B6B"/>
<path d="M17.6661 10.492C17.6235 10.4983 17.609 10.5221 17.609 10.6351V11.1846C17.609 11.2975 17.6235 11.3213 17.6661 11.3276V11.3489H17.3572V11.3276C17.3986 11.3213 17.4132 11.2975 17.4132 11.1846V10.6351C17.4132 10.5221 17.3986 10.4983 17.3572 10.492V10.4707H17.6661V10.492Z" fill="#003B6B"/>
<path d="M17.1379 11.093C17.2595 11.2799 17.3288 11.3175 17.3811 11.3276V11.3489H17.2085C17.1014 11.3489 17.0516 11.3276 16.9652 11.1708C16.8631 10.9876 16.8412 10.9474 16.784 10.9474H16.7633V11.1846C16.7633 11.2975 16.7779 11.3213 16.8205 11.3276V11.3489H16.5116V11.3276C16.5529 11.3213 16.5675 11.2975 16.5675 11.1846V10.6351C16.5675 10.5221 16.5529 10.4983 16.5116 10.492V10.4707H16.801C17.009 10.4707 17.1197 10.5535 17.1197 10.7053C17.1197 10.8007 17.0516 10.8772 16.981 10.906C17.0199 10.9274 17.0808 11.0039 17.1379 11.093ZM16.7633 10.5573V10.9136C16.84 10.906 16.9202 10.8408 16.9202 10.7166C16.9202 10.6112 16.8704 10.5585 16.7633 10.5573Z" fill="#003B6B"/>
<path d="M16.4033 11.0779L16.4264 11.0804L16.3972 11.3489H15.805V11.3276C15.8463 11.3213 15.8609 11.2975 15.8609 11.1846V10.6351C15.8609 10.5221 15.8463 10.4983 15.805 10.492V10.4707H16.3875L16.4143 10.6953L16.3911 10.6978C16.3802 10.6514 16.3644 10.5573 16.2428 10.5573H16.0579V10.8584H16.1528C16.2525 10.8584 16.2829 10.8207 16.2914 10.7793H16.3036V11.0139H16.2914C16.2829 10.9725 16.2525 10.9336 16.1528 10.9336H16.0579V11.2611H16.2403C16.3729 11.2611 16.3911 11.1469 16.4033 11.0779Z" fill="#003B6B"/>
<path d="M15.4073 10.8798H15.732V10.8948C15.7028 10.9023 15.6748 10.9274 15.6748 10.9977V11.2762C15.614 11.3189 15.5095 11.3615 15.3854 11.3615C15.0801 11.3615 14.9257 11.1871 14.8977 10.9764C14.8637 10.7192 15.0449 10.4833 15.3027 10.4544C15.3282 10.4519 15.3526 10.4507 15.3757 10.4507C15.4645 10.4519 15.5593 10.482 15.6177 10.5009V10.7167H15.597C15.5678 10.605 15.4657 10.5209 15.3246 10.5435C15.1483 10.5724 15.0984 10.7869 15.1179 10.9488C15.1373 11.1169 15.2492 11.2624 15.4134 11.2536C15.4426 11.2511 15.4657 11.2461 15.4851 11.2373V11.0165C15.4851 10.9337 15.473 10.9074 15.4073 10.9048V10.8798Z" fill="#003B6B"/>
<path d="M14.7956 10.492C14.753 10.4983 14.7384 10.5221 14.7384 10.6351V11.1846C14.7384 11.2975 14.753 11.3213 14.7956 11.3276V11.3489H14.4867V11.3276C14.528 11.3213 14.5426 11.2975 14.5426 11.1846V10.6351C14.5426 10.5221 14.528 10.4983 14.4867 10.492V10.4707H14.7956V10.492Z" fill="#003B6B"/>
<path d="M14.1968 10.4707H14.4011V10.4933C14.3585 10.4983 14.3439 10.5221 14.3439 10.6351V11.3489H14.2904L13.7407 10.7655V11.1846C13.7407 11.2975 13.7553 11.3213 13.7967 11.3276V11.3489H13.5936V11.3276C13.6349 11.3213 13.6495 11.2975 13.6495 11.1846V10.6351C13.6495 10.5221 13.6349 10.4983 13.5936 10.4933V10.4707H13.7553L14.2527 11.0001V10.6351C14.2527 10.5221 14.2393 10.4983 14.1968 10.4933V10.4707Z" fill="#003B6B"/>
<path d="M19.8503 12.3124L19.871 12.3137L19.8442 12.547C19.7798 12.5884 19.7092 12.616 19.5852 12.616C19.3055 12.616 19.1729 12.4416 19.145 12.2309C19.1109 11.9737 19.2812 11.7378 19.5378 11.709C19.5633 11.7065 19.5876 11.7052 19.612 11.7052C19.7007 11.7065 19.7652 11.724 19.8236 11.7428V11.9335H19.8017C19.7774 11.8608 19.6752 11.7805 19.5609 11.798C19.3833 11.8256 19.3456 12.0414 19.3651 12.2033C19.3857 12.3714 19.494 12.5207 19.6582 12.5119C19.7494 12.5069 19.8211 12.4529 19.8503 12.3124Z" fill="#003B6B"/>
<path d="M19.0428 11.7467C19.0003 11.7529 18.9857 11.7768 18.9857 11.8897V12.4392C18.9857 12.5521 19.0003 12.576 19.0428 12.5822V12.6036H18.7339V12.5822C18.7753 12.576 18.7899 12.5521 18.7899 12.4392V11.8897C18.7899 11.7768 18.7753 11.7529 18.7339 11.7467V11.7253H19.0428V11.7467Z" fill="#003B6B"/>
<path d="M18.5769 12.4392C18.5902 12.5496 18.6182 12.576 18.6608 12.5822V12.6036H18.3275V12.5822C18.3689 12.576 18.3944 12.5509 18.3811 12.4392L18.3239 11.9487L18.0819 12.6036H18.0442L17.7924 11.9662L17.7353 12.4392C17.7219 12.5534 17.7474 12.576 17.7888 12.5822V12.6036H17.5626V12.5822C17.6039 12.576 17.6319 12.5509 17.6453 12.4392L17.7134 11.8897C17.728 11.7793 17.7085 11.7529 17.666 11.7467V11.7253H17.908L18.1147 12.2761L18.3166 11.7253H18.5586V11.7467C18.5161 11.7529 18.4966 11.778 18.5112 11.8897C18.5112 11.8897 18.5112 11.8897 18.5769 12.4392Z" fill="#003B6B"/>
<path d="M17.5003 12.1556C17.5039 12.4066 17.3251 12.6123 17.0649 12.6161C16.7487 12.6211 16.5784 12.4179 16.576 12.1657C16.5723 11.9148 16.7572 11.709 17.0174 11.7053C17.3336 11.7015 17.4966 11.9047 17.5003 12.1556ZM17.105 12.5245C17.2826 12.4969 17.3008 12.2874 17.2765 12.1255C17.2497 11.9424 17.1476 11.7705 16.9737 11.7981C16.7961 11.8257 16.7754 12.0352 16.7998 12.1958C16.8265 12.3802 16.9311 12.5521 17.105 12.5245Z" fill="#003B6B"/>
<path d="M16.2849 11.7253H16.4892V11.7479C16.4466 11.7529 16.432 11.7768 16.432 11.8897V12.6036H16.3785L15.8288 12.0202V12.4392C15.8288 12.5521 15.8434 12.576 15.8847 12.5822V12.6036H15.6816V12.5822C15.723 12.576 15.7376 12.5521 15.7376 12.4392V11.8897C15.7376 11.7768 15.723 11.7529 15.6816 11.7479V11.7253H15.8434L16.3408 12.2548V11.8897C16.3408 11.7768 16.3274 11.7529 16.2849 11.7479V11.7253Z" fill="#003B6B"/>
<path d="M15.5834 12.1556C15.587 12.4066 15.4083 12.6123 15.148 12.6161C14.8318 12.6211 14.6615 12.4179 14.6591 12.1657C14.6555 11.9148 14.8403 11.709 15.1006 11.7053C15.4168 11.7015 15.5797 11.9047 15.5834 12.1556ZM15.1881 12.5245C15.3657 12.4969 15.3839 12.2874 15.3596 12.1255C15.3329 11.9424 15.2307 11.7705 15.0568 11.7981C14.8792 11.8257 14.8586 12.0352 14.8829 12.1958C14.9096 12.3802 15.0142 12.5521 15.1881 12.5245Z" fill="#003B6B"/>
<path d="M14.5522 12.3124L14.5729 12.3137L14.5461 12.547C14.4817 12.5884 14.4112 12.616 14.2871 12.616C14.0074 12.616 13.8748 12.4416 13.8469 12.2309C13.8128 11.9737 13.9831 11.7378 14.2397 11.709C14.2652 11.7065 14.2895 11.7052 14.3139 11.7052C14.4026 11.7065 14.4671 11.724 14.5255 11.7428V11.9335H14.5036C14.4793 11.8608 14.3771 11.7805 14.2628 11.798C14.0852 11.8256 14.0475 12.0414 14.067 12.2033C14.0877 12.3714 14.1959 12.5207 14.3601 12.5119C14.4513 12.5069 14.523 12.4529 14.5522 12.3124Z" fill="#003B6B"/>
<path d="M13.7456 12.3326L13.7687 12.3351L13.7395 12.6036H13.1472V12.5822C13.1886 12.576 13.2032 12.5521 13.2032 12.4392V11.8897C13.2032 11.7768 13.1886 11.7529 13.1472 11.7467V11.7253H13.7298L13.7565 11.9499L13.7334 11.9524C13.7225 11.906 13.7066 11.8119 13.585 11.8119H13.4002V12.113H13.495C13.5948 12.113 13.6252 12.0754 13.6337 12.034H13.6458V12.2686H13.6337C13.6252 12.2272 13.5948 12.1883 13.495 12.1883H13.4002V12.5157H13.5826C13.7152 12.5157 13.7334 12.4016 13.7456 12.3326Z" fill="#003B6B"/>
<path d="M18.8908 12.9799L18.92 13.2483L18.8968 13.2508C18.8847 13.1818 18.8664 13.0664 18.7339 13.0664H18.6475V13.6937C18.6475 13.8066 18.6621 13.8305 18.7047 13.8367V13.8581H18.3946V13.8367C18.4371 13.8305 18.4517 13.8066 18.4517 13.6937V13.0664H18.3654C18.2328 13.0664 18.2146 13.1818 18.2024 13.2508L18.1793 13.2483L18.2085 12.9799H18.8908Z" fill="#003B6B"/>
<path d="M18.0942 13.0012C18.0516 13.0075 18.0371 13.0313 18.0371 13.1442V13.6937C18.0371 13.8066 18.0516 13.8305 18.0942 13.8367V13.8581H17.7853V13.8367C17.8267 13.8305 17.8413 13.8066 17.8413 13.6937V13.1442C17.8413 13.0313 17.8267 13.0075 17.7853 13.0012V12.9799H18.0942V13.0012Z" fill="#003B6B"/>
<path d="M17.6283 13.6937C17.6417 13.8041 17.6696 13.8305 17.7122 13.8367V13.8581H17.379V13.8367C17.4203 13.8305 17.4459 13.8054 17.4325 13.6937L17.3753 13.2032L17.1333 13.8581H17.0956L16.8439 13.2207L16.7867 13.6937C16.7733 13.8079 16.7989 13.8305 16.8402 13.8367V13.8581H16.614V13.8367C16.6554 13.8305 16.6833 13.8054 16.6967 13.6937L16.7648 13.1442C16.7794 13.0338 16.76 13.0075 16.7174 13.0012V12.9799H16.9594L17.1661 13.5306L17.368 12.9799H17.61V13.0012C17.5675 13.0075 17.548 13.0326 17.5626 13.1442C17.5626 13.1442 17.5626 13.1442 17.6283 13.6937Z" fill="#003B6B"/>
<path d="M16.4573 13.6937C16.4706 13.8041 16.4986 13.8305 16.5412 13.8367V13.8581H16.208V13.8367C16.2493 13.8305 16.2748 13.8054 16.2615 13.6937L16.2043 13.2032L15.9623 13.8581H15.9246L15.6728 13.2207L15.6157 13.6937C15.6023 13.8079 15.6278 13.8305 15.6692 13.8367V13.8581H15.443V13.8367C15.4843 13.8305 15.5123 13.8054 15.5257 13.6937L15.5938 13.1442C15.6084 13.0338 15.5889 13.0075 15.5464 13.0012V12.9799H15.7884L15.9951 13.5306L16.197 12.9799H16.439V13.0012C16.3965 13.0075 16.377 13.0326 16.3916 13.1442C16.3916 13.1442 16.3916 13.1442 16.4573 13.6937Z" fill="#003B6B"/>
<path d="M15.2034 12.9799H15.4065V13.0012C15.3651 13.0075 15.3505 13.0313 15.3505 13.1442V13.5507C15.3505 13.8393 15.1511 13.8706 15.0538 13.8706C14.7996 13.8706 14.7035 13.7364 14.7035 13.5319V13.1442C14.7035 13.0313 14.6889 13.0075 14.6464 13.0012V12.9799H14.9565V13.0012C14.9139 13.0075 14.8993 13.0313 14.8993 13.1442V13.572C14.8993 13.69 14.948 13.7778 15.0781 13.7778C15.1888 13.7778 15.2593 13.7163 15.2593 13.5796V13.1442C15.2593 13.0313 15.2447 13.0075 15.2034 13.0012V12.9799Z" fill="#003B6B"/>
<path d="M14.1663 13.1631C14.1663 13.3237 14.5615 13.3299 14.5615 13.5997C14.5615 13.8192 14.3888 13.8707 14.2344 13.8707C14.1018 13.8707 14.0264 13.8318 13.9753 13.8004V13.5997L13.9984 13.5972C14.0289 13.7113 14.1322 13.7565 14.2088 13.7565C14.2988 13.7565 14.3463 13.7126 14.3463 13.6511C14.3463 13.4993 13.9766 13.4805 13.9766 13.2145C13.9766 12.9937 14.1821 12.9598 14.2733 12.9598C14.3633 12.9598 14.4241 12.9824 14.4679 12.9962C14.4679 12.9962 14.4813 13.1317 14.4849 13.1581L14.4642 13.1631C14.435 13.1079 14.3852 13.0539 14.2879 13.0539C14.2101 13.0539 14.1663 13.0966 14.1663 13.1631Z" fill="#003B6B"/>
<path d="M2.24744 19.232C2.24744 19.2098 2.79787 19.86 3.56407 20.2719C4.32669 20.7254 5.30418 20.9401 6.06411 21.0123C6.4203 21.9687 6.7717 22.9251 7.11831 23.8815C7.11831 23.8533 6.50104 23.9954 5.80437 23.763C5.10501 23.5742 4.32759 23.011 3.95301 22.5783C3.85742 22.2135 3.78578 21.8424 3.73858 21.4677C3.26172 20.7735 2.76467 20.0321 2.24744 19.232Z" fill="url(#paint0_linear_3233_329)"/>
<path d="M6.12877 20.9397C5.85961 21.5501 5.64384 22.0911 5.47561 22.571C5.31187 22.6151 5.14405 22.6412 4.97498 22.6487C5.62294 23.1716 6.34613 23.5868 7.11838 23.8793L6.12877 20.9397Z" fill="url(#paint1_linear_3233_329)"/>
<path d="M22.1764 19.1871C22.1764 19.2093 21.626 18.2504 20.8602 17.5674C20.0976 16.8441 19.1197 16.398 18.3593 16.4799C18.0031 17.6982 17.6523 18.9164 17.3069 20.1344C17.3069 20.1626 17.9242 20.2071 18.6213 20.6814C19.3206 21.1118 20.0981 21.9721 20.4726 22.6251C20.5682 21.7426 20.6395 20.8624 20.6871 19.991C21.1569 19.6735 21.6557 19.4042 22.1764 19.1871Z" fill="url(#paint2_linear_3233_329)"/>
<path d="M18.296 16.3804C18.5754 17.2422 18.7938 18.1238 18.9497 19.0182C19.1213 19.253 19.2882 19.5067 19.4503 19.7795C18.7079 19.7193 17.9932 19.8609 17.3069 20.134L18.296 16.3804Z" fill="url(#paint3_linear_3233_329)"/>
<path d="M20.8307 16.025C20.819 16.056 20.8073 16.087 20.7961 16.1176L20.7934 16.1254C20.6639 16.4787 20.5344 16.8319 20.405 17.1852L19.4535 19.7814C19.4535 19.8096 19.4427 19.805 19.4135 19.7763C19.279 19.6467 18.7918 19.0266 17.673 18.86L17.6452 18.8563C16.5358 18.6994 14.8136 18.9882 12.2171 20.6185C9.62065 22.2489 7.89535 22.7742 6.78551 22.8792H6.7586C5.76675 22.9681 5.27149 22.72 5.0786 22.639C5.00592 22.6089 4.97587 22.6015 4.97811 22.6446C4.6611 21.931 4.34409 21.2175 4.02708 20.5042C4.02708 20.4996 4.02305 20.4954 4.02125 20.4908C3.89295 20.202 3.7645 19.9133 3.63591 19.6245L3.59912 19.5412C3.60361 19.4269 4.26484 20.0086 5.68824 19.8971C6.89138 19.8364 8.64406 19.277 10.9368 17.9608C11.3466 17.7251 11.7735 17.4652 12.2176 17.181C13.41 16.4156 14.479 15.8853 15.4224 15.5391C16.796 15.0356 17.9049 14.9269 18.746 15.0611C18.8818 15.079 19.0165 15.1042 19.1498 15.1365C20.2475 15.4068 20.7858 16.0657 20.8307 16.025Z" fill="url(#paint4_linear_3233_329)"/>
<path d="M20.831 16.0166C20.8309 16.0199 20.8297 16.0231 20.8275 16.0257C20.8284 16.0225 20.8296 16.0195 20.831 16.0166Z" fill="url(#paint5_linear_3233_329)"/>
<path d="M20.8306 16.0249C20.819 16.0559 20.8073 16.0869 20.7961 16.1175C20.7962 16.1189 20.7961 16.1203 20.7956 16.1217C20.7951 16.1231 20.7944 16.1243 20.7934 16.1253C20.7485 16.1679 20.1685 15.4515 18.9752 15.2104C18.8918 15.1938 18.8055 15.1794 18.7164 15.1674C17.9188 15.0397 16.8771 15.1317 15.5995 15.5732C14.6126 15.9134 13.4848 16.4613 12.2153 17.2763C11.7488 17.5758 11.3014 17.8473 10.8731 18.0907C8.62338 19.374 6.90077 19.921 5.71422 19.9807C4.29845 20.0922 3.64125 19.5152 3.63408 19.6267L3.59729 19.5434C3.60178 19.4291 4.26301 20.0108 5.68641 19.8993C6.88955 19.8386 8.64222 19.2791 10.935 17.963C11.3447 17.7273 11.7716 17.4674 12.2158 17.1832C13.4081 16.4178 14.4771 15.8875 15.4205 15.5413C16.7942 15.0378 17.9031 14.929 18.7442 15.0633C18.88 15.0812 19.0147 15.1064 19.1479 15.1387C20.2475 15.4066 20.7858 16.0656 20.8306 16.0249Z" fill="url(#paint6_linear_3233_329)"/>
<path d="M20.831 16.0166C20.8309 16.0199 20.8297 16.0231 20.8275 16.0257C20.8284 16.0225 20.8296 16.0195 20.831 16.0166Z" fill="url(#paint7_linear_3233_329)"/>
<path d="M8.33599 21.3277L8.22697 21.3656L8.25245 20.3699L8.35979 20.3326L8.96495 21.1087L8.85593 21.1466L8.35533 20.4902L8.34862 20.4926L8.33599 21.3277ZM8.26302 20.9676L8.70246 20.8146L8.73359 20.9098L8.29416 21.0628L8.26302 20.9676Z" fill="#003B6B"/>
<path d="M9.53895 19.8482L9.8925 20.7091L9.79471 20.7519L9.06236 20.2747L9.05421 20.2782L9.3318 20.9542L9.23075 20.9984L8.8772 20.1375L8.97499 20.0947L9.70966 20.5729L9.71781 20.5693L9.43953 19.8917L9.53895 19.8482Z" fill="#003B6B"/>
<path d="M10.4182 19.3968L10.8245 20.2325L10.7296 20.2817L9.96908 19.8539L9.96117 19.858L10.2802 20.5142L10.1821 20.565L9.77576 19.7292L9.87069 19.6801L10.6336 20.1087L10.6415 20.1046L10.3216 19.4468L10.4182 19.3968Z" fill="#003B6B"/>
<path d="M10.7513 19.2039L11.1904 20.0218L11.0944 20.0767L10.6553 19.2588L10.7513 19.2039Z" fill="#003B6B"/>
<path d="M11.0969 19.001L11.7174 19.5363L11.7265 19.5307L11.5688 18.7123L11.6678 18.6517L11.8438 19.6309L11.7464 19.6905L10.9979 19.0615L11.0969 19.001Z" fill="#003B6B"/>
<path d="M12.2813 19.3624L11.8413 18.5449L12.3195 18.271L12.3668 18.3588L11.9845 18.5778L12.1332 18.854L12.4907 18.6492L12.5379 18.737L12.1804 18.9418L12.33 19.2196L12.7184 18.9971L12.7657 19.0849L12.2813 19.3624Z" fill="#003B6B"/>
<path d="M12.9764 18.9726L12.5776 18.1311L12.8533 17.9921C12.917 17.96 12.9746 17.9448 13.0261 17.9466C13.0776 17.9482 13.1223 17.9635 13.1604 17.9925C13.1985 18.0215 13.2293 18.0607 13.2527 18.1103C13.2762 18.1599 13.2873 18.2088 13.2858 18.2571C13.2843 18.3053 13.2684 18.3507 13.2382 18.3931C13.2078 18.4352 13.1611 18.4722 13.0979 18.5041L12.8748 18.6166L12.8312 18.5245L13.0511 18.4136C13.0946 18.3917 13.1265 18.3674 13.1469 18.3409C13.1674 18.3142 13.178 18.2858 13.1785 18.2557C13.1792 18.2251 13.1715 18.193 13.1556 18.1593C13.1396 18.1256 13.1195 18.0993 13.0954 18.0802C13.0712 18.0612 13.0425 18.0516 13.0092 18.0514C12.9757 18.051 12.937 18.0619 12.8929 18.0841L12.7193 18.1717L13.0752 18.9228L12.9764 18.9726ZM13.1812 18.4009L13.5611 18.6777L13.4464 18.7356L13.0697 18.4572L13.1812 18.4009Z" fill="#003B6B"/>
<path d="M13.9339 17.7537C13.9115 17.7132 13.8781 17.6889 13.8337 17.6805C13.7893 17.6722 13.7419 17.6791 13.6914 17.7012C13.6545 17.7173 13.6247 17.7376 13.6021 17.762C13.5797 17.7863 13.5653 17.8126 13.5586 17.841C13.5523 17.8692 13.5548 17.897 13.566 17.9244C13.5755 17.9474 13.5889 17.9648 13.6063 17.9767C13.6238 17.9882 13.6432 17.9957 13.6645 17.9993C13.6857 18.0026 13.707 18.0037 13.7283 18.0026C13.7495 18.0013 13.7688 17.9993 13.786 17.9967L13.8803 17.9832C13.9044 17.9796 13.9319 17.9772 13.9628 17.9759C13.9939 17.9745 14.0254 17.9774 14.0572 17.9847C14.0891 17.9915 14.1188 18.0053 14.1462 18.026C14.1736 18.0467 14.1956 18.0772 14.2122 18.1176C14.2313 18.164 14.2367 18.2112 14.2285 18.2591C14.2206 18.3068 14.1986 18.3516 14.1627 18.3934C14.127 18.4351 14.0771 18.4699 14.013 18.498C13.9533 18.5241 13.8975 18.5367 13.8457 18.536C13.7941 18.5351 13.7485 18.5223 13.7089 18.4977C13.6696 18.4729 13.6386 18.4377 13.616 18.3921L13.7203 18.3465C13.7363 18.3778 13.758 18.4001 13.7852 18.4133C13.8125 18.4261 13.8426 18.4315 13.8753 18.4294C13.9083 18.4269 13.9413 18.4184 13.9744 18.4039C14.0129 18.387 14.0449 18.3654 14.0703 18.3392C14.0955 18.3126 14.1123 18.2838 14.1207 18.2527C14.129 18.2213 14.1266 18.19 14.1138 18.1586C14.102 18.1301 14.0847 18.1102 14.0619 18.099C14.0391 18.0879 14.0127 18.0822 13.9829 18.0821C13.953 18.0819 13.9217 18.084 13.889 18.0885L13.7739 18.1031C13.7009 18.1122 13.6379 18.1072 13.5852 18.088C13.5325 18.0688 13.4942 18.0302 13.4704 17.9722C13.4506 17.9241 13.446 17.8765 13.4565 17.8297C13.4672 17.7824 13.4899 17.7394 13.5246 17.7008C13.5594 17.6618 13.6035 17.6306 13.6567 17.6073C13.7104 17.5838 13.7623 17.5729 13.8122 17.5745C13.8621 17.5758 13.9063 17.5882 13.9447 17.6117C13.9835 17.635 14.0124 17.6681 14.0316 17.7109L13.9339 17.7537Z" fill="#003B6B"/>
<path d="M14.5073 18.2735L14.3987 18.3128L14.4124 17.3169L14.5193 17.2782L15.1336 18.0466L15.025 18.0859L14.5167 17.4359L14.51 17.4383L14.5073 18.2735ZM14.43 17.9144L14.8676 17.7559L14.8999 17.8506L14.4623 18.0091L14.43 17.9144Z" fill="#003B6B"/>
<path d="M15.3594 17.9809L15.1328 17.074L15.4299 16.995C15.4985 16.9767 15.558 16.9738 15.6081 16.9863C15.6581 16.9985 15.699 17.0228 15.7306 17.0591C15.7623 17.0954 15.7848 17.1402 15.7981 17.1937C15.8115 17.2471 15.8127 17.2973 15.8019 17.3443C15.791 17.3912 15.7666 17.4323 15.7288 17.4676C15.6908 17.5026 15.6378 17.5291 15.5697 17.5472L15.3293 17.6111L15.3045 17.5119L15.5414 17.4489C15.5884 17.4364 15.6244 17.4193 15.6495 17.3975C15.6748 17.3757 15.6907 17.35 15.6971 17.3206C15.7037 17.2909 15.7024 17.2578 15.6934 17.2215C15.6843 17.1852 15.6698 17.1552 15.6498 17.1315C15.6299 17.1079 15.6036 17.0925 15.571 17.0854C15.5384 17.0781 15.4983 17.0807 15.4508 17.0933L15.2636 17.1431L15.4659 17.9526L15.3594 17.9809ZM15.6714 17.4635L15.9896 17.8134L15.8659 17.8462L15.5512 17.4954L15.6714 17.4635Z" fill="#003B6B"/>
<path d="M15.9513 16.8696L16.0753 16.8483L16.3928 17.2362L16.4032 17.2344L16.5816 16.7613L16.7056 16.74L16.4702 17.3377L16.5315 17.7178L16.4233 17.7364L16.3619 17.3563L15.9513 16.8696Z" fill="#003B6B"/>
<defs>
<linearGradient id="paint0_linear_3233_329" x1="5.96497" y1="21.2756" x2="3.06851" y2="21.8694" gradientUnits="userSpaceOnUse">
<stop offset="0.33" stop-color="#FE917A"/>
<stop offset="0.44" stop-color="#FE9E89"/>
<stop offset="0.65" stop-color="#FFBFB1"/>
<stop offset="0.88" stop-color="#FFEBE6"/>
</linearGradient>
<linearGradient id="paint1_linear_3233_329" x1="6.04668" y1="22.6404" x2="6.04668" y2="23.714" gradientUnits="userSpaceOnUse">
<stop offset="0.09" stop-color="#FE917A"/>
<stop offset="0.26" stop-color="#FE9E89"/>
<stop offset="0.58" stop-color="#FEBFB1"/>
<stop offset="0.82" stop-color="#FEDAD2"/>
</linearGradient>
<linearGradient id="paint2_linear_3233_329" x1="17.3069" y1="19.5485" x2="22.1778" y2="19.5485" gradientUnits="userSpaceOnUse">
<stop offset="0.26" stop-color="#FE917A"/>
<stop offset="0.35" stop-color="#FE9E89"/>
<stop offset="0.54" stop-color="#FFBFB1"/>
<stop offset="0.74" stop-color="#FFEBE6"/>
</linearGradient>
<linearGradient id="paint3_linear_3233_329" x1="18.3786" y1="18.5554" x2="18.3786" y2="19.9262" gradientUnits="userSpaceOnUse">
<stop offset="0.33" stop-color="#FE917A"/>
<stop offset="0.46" stop-color="#FE9E89"/>
<stop offset="0.71" stop-color="#FEBFB1"/>
<stop offset="0.88" stop-color="#FEDAD2"/>
</linearGradient>
<linearGradient id="paint4_linear_3233_329" x1="3.59553" y1="18.9567" x2="20.8289" y2="18.9567" gradientUnits="userSpaceOnUse">
<stop offset="0.19" stop-color="#FFBAAA"/>
<stop offset="0.26" stop-color="#FFCDC1"/>
<stop offset="0.33" stop-color="#FFDBD2"/>
<stop offset="0.42" stop-color="#FFE3DD"/>
<stop offset="0.51" stop-color="#FFE6E0"/>
<stop offset="0.58" stop-color="#FFE2DB"/>
<stop offset="0.67" stop-color="#FFD6CD"/>
<stop offset="0.75" stop-color="#FFC2B5"/>
<stop offset="0.84" stop-color="#FFA694"/>
<stop offset="0.86" stop-color="#FF9F8C"/>
</linearGradient>
<linearGradient id="paint5_linear_3233_329" x1="20.829" y1="16.0211" x2="20.8326" y2="16.0211" gradientUnits="userSpaceOnUse">
<stop offset="0.06" stop-color="#E0DDD9"/>
<stop offset="0.13" stop-color="#CFCECD"/>
<stop offset="0.29" stop-color="#ADB1B5"/>
<stop offset="0.43" stop-color="#989FA6"/>
<stop offset="0.51" stop-color="#9098A1"/>
<stop offset="0.63" stop-color="#A1A7AD"/>
<stop offset="0.87" stop-color="#CCCDCC"/>
<stop offset="1" stop-color="#E7E5DF"/>
</linearGradient>
<linearGradient id="paint6_linear_3233_329" x1="13.6576" y1="20.3755" x2="10.6533" y2="15.3317" gradientUnits="userSpaceOnUse">
<stop offset="0.1" stop-color="#FEDAD2"/>
<stop offset="0.39" stop-color="#FE917A"/>
<stop offset="0.62" stop-color="#FFEBE6"/>
<stop offset="0.84" stop-color="#F57F63"/>
</linearGradient>
<linearGradient id="paint7_linear_3233_329" x1="20.8321" y1="16.0236" x2="20.829" y2="16.0181" gradientUnits="userSpaceOnUse">
<stop stop-color="#99999A"/>
<stop offset="0.36" stop-color="#FCEFE9"/>
<stop offset="0.72" stop-color="#888583"/>
<stop offset="1" stop-color="#EDD8C3"/>
</linearGradient>
</defs>
</svg>
