<svg width="20" height="20" viewBox="0 0 20 20" fill="none" xmlns="http://www.w3.org/2000/svg">
    <path
        d="M11.0291 0.000732422C12.1545 0.00259242 12.7248 0.00855245 13.2176 0.0232224L13.4117 0.0295625C13.6359 0.0375325 13.8571 0.0475324 14.1238 0.0600324C15.1879 0.109202 15.9138 0.277532 16.5513 0.525032C17.2104 0.779202 17.7671 1.12253 18.3229 1.67837C18.8779 2.2342 19.2213 2.79253 19.4763 3.45003C19.7229 4.0867 19.8913 4.81337 19.9413 5.87753C19.9532 6.1442 19.9628 6.3654 19.9707 6.58964L19.977 6.78373C19.9916 7.27647 19.9983 7.84686 20.0004 8.9723L20.0012 9.7179C20.0013 9.809 20.0013 9.903 20.0013 10L20.0012 10.2821L20.0006 11.0278C19.9987 12.1532 19.9928 12.7236 19.9781 13.2163L19.9717 13.4104C19.9638 13.6347 19.9538 13.8559 19.9413 14.1225C19.8921 15.1867 19.7229 15.9125 19.4763 16.55C19.2221 17.2092 18.8779 17.7659 18.3229 18.3217C17.7671 18.8767 17.2079 19.22 16.5513 19.475C15.9138 19.7217 15.1879 19.89 14.1238 19.94C13.8571 19.9519 13.6359 19.9616 13.4117 19.9694L13.2176 19.9757C12.7248 19.9904 12.1545 19.997 11.0291 19.9992L10.2834 20C10.1923 20 10.0983 20 10.0013 20H9.71917L8.97347 19.9993C7.84807 19.9975 7.27769 19.9915 6.78494 19.9768L6.59086 19.9705C6.36661 19.9625 6.14541 19.9525 5.87875 19.94C4.81458 19.8909 4.08958 19.7217 3.45125 19.475C2.79291 19.2209 2.23541 18.8767 1.67958 18.3217C1.12375 17.7659 0.781253 17.2067 0.526253 16.55C0.278753 15.9125 0.111253 15.1867 0.0612533 14.1225C0.0493733 13.8559 0.0396832 13.6347 0.0318332 13.4104L0.0255432 13.2163C0.0109132 12.7236 0.0042433 12.1532 0.0020833 11.0278L0.00195312 8.9723C0.00381312 7.84686 0.00976314 7.27647 0.0244331 6.78373L0.0307832 6.58964C0.0387532 6.3654 0.0487533 6.1442 0.0612533 5.87753C0.110413 4.81253 0.278753 4.08753 0.526253 3.45003C0.780413 2.7917 1.12375 2.2342 1.67958 1.67837C2.23541 1.12253 2.79375 0.780032 3.45125 0.525032C4.08875 0.277532 4.81375 0.110032 5.87875 0.0600324C6.14541 0.0481624 6.36661 0.0384725 6.59086 0.0306225L6.78494 0.0243323C7.27769 0.00969229 7.84807 0.00302236 8.97347 0.00086236L11.0291 0.000732422ZM10.0013 5.00003C7.23835 5.00003 5.00125 7.23956 5.00125 10C5.00125 12.7629 7.24078 15 10.0013 15C12.7642 15 15.0013 12.7605 15.0013 10C15.0013 7.23713 12.7617 5.00003 10.0013 5.00003ZM10.0013 7.00003C11.6582 7.00003 13.0013 8.3427 13.0013 10C13.0013 11.6569 11.6586 13 10.0013 13C8.34437 13 7.00125 11.6574 7.00125 10C7.00125 8.3431 8.34387 7.00003 10.0013 7.00003ZM15.2513 3.50003C14.562 3.50003 14.0013 4.05994 14.0013 4.74918C14.0013 5.43843 14.5612 5.9992 15.2513 5.9992C15.9405 5.9992 16.5013 5.4393 16.5013 4.74918C16.5013 4.05994 15.9396 3.49917 15.2513 3.50003Z"
        fill="currentColor" />
</svg>