<svg width="20" height="18" viewBox="0 0 20 18" fill="none" xmlns="http://www.w3.org/2000/svg">
<path d="M4.44146 1.99993C4.44109 2.81424 3.94706 3.54702 3.19232 3.85273C2.43758 4.15845 1.57285 3.97605 1.00588 3.39155C0.438906 2.80704 0.282926 1.93715 0.611476 1.19207C0.940036 0.44699 1.68752 -0.0245006 2.50146 -7.061e-05C3.58253 0.0323794 4.44195 0.918369 4.44146 1.99993ZM4.50146 5.47993H0.501456V17.9999H4.50146V5.47993ZM10.8215 5.47993H6.84146V17.9999H10.7815V11.4299C10.7815 7.7699 15.5515 7.4299 15.5515 11.4299V17.9999H19.5015V10.0699C19.5015 3.89993 12.4415 4.12993 10.7815 7.1599L10.8215 5.47993Z" fill="currentColor"/>
</svg>
