<svg width="21" height="16" viewBox="0 0 21 16" fill="none" xmlns="http://www.w3.org/2000/svg">
    <path
        d="M10.4939 0C11.028 0.00294 12.3643 0.0158601 13.7841 0.0727301L14.2875 0.0946798C15.717 0.16236 17.1453 0.27798 17.8537 0.4755C18.7986 0.74095 19.5413 1.5155 19.7923 2.49732C20.192 4.05641 20.242 7.0994 20.2482 7.8358L20.2491 7.9884V7.9991C20.2491 7.9991 20.2491 8.0028 20.2491 8.0099L20.2482 8.1625C20.242 8.8989 20.192 11.9419 19.7923 13.501C19.5378 14.4864 18.7951 15.261 17.8537 15.5228C17.1453 15.7203 15.717 15.8359 14.2875 15.9036L13.7841 15.9255C12.3643 15.9824 11.028 15.9953 10.4939 15.9983L10.2595 15.9991H10.2491C10.2491 15.9991 10.2456 15.9991 10.2387 15.9991L10.0045 15.9983C8.8741 15.9921 4.14772 15.941 2.64451 15.5228C1.6996 15.2573 0.95692 14.4828 0.70587 13.501C0.3062 11.9419 0.25624 8.8989 0.25 8.1625V7.8358C0.25624 7.0994 0.3062 4.05641 0.70587 2.49732C0.9604 1.51186 1.70308 0.73732 2.64451 0.4755C4.14772 0.0572301 8.8741 0.00622 10.0045 0H10.4939ZM8.24911 4.49914V11.4991L14.2491 7.9991L8.24911 4.49914Z"
        fill="currentColor" />
</svg>